NotoSans-CondensedExtraBold.ufo
<glyph name="asterisk" format="2">
  <advance width="973"/>
  <unicode hex="002A"/>
  <outline>
    <contour>
      <point x="637" y="1563" type="line"/>
      <point x="336" y="1563" type="line"/>
      <point x="375" y="1255" type="line"/>
      <point x="96" y="1368" type="line"/>
      <point x="25" y="1081" type="line"/>
      <point x="307" y="1044" type="line"/>
      <point x="94" y="819" type="line"/>
      <point x="338" y="643" type="line"/>
      <point x="485" y="915" type="line"/>
      <point x="635" y="643" type="line"/>
      <point x="879" y="819" type="line"/>
      <point x="666" y="1044" type="line"/>
      <point x="948" y="1081" type="line"/>
      <point x="877" y="1368" type="line"/>
      <point x="598" y="1255" type="line"/>
    </contour>
  </outline>
</glyph>
<glyph name="zero" format="2">
  <advance width="1014"/>
  <unicode hex="0030"/>
  <outline>
    <contour>
      <point x="942" y="729" type="curve" smooth="yes"/>
      <point x="942" y="1229"/>
      <point x="795" y="1483"/>
      <point x="506" y="1483" type="curve" smooth="yes"/>
      <point x="211" y="1483"/>
      <point x="72" y="1249"/>
      <point x="72" y="729" type="curve" smooth="yes"/>
      <point x="72" y="233"/>
      <point x="217" y="-20"/>
      <point x="506" y="-20" type="curve" smooth="yes"/>
      <point x="854" y="-20"/>
      <point x="942" y="307"/>
    </contour>
    <contour>
      <point x="414" y="729" type="curve" smooth="yes"/>
      <point x="414" y="1032"/>
      <point x="432" y="1182"/>
      <point x="506" y="1182" type="curve" smooth="yes"/>
      <point x="586" y="1182"/>
      <point x="600" y="1032"/>
      <point x="600" y="729" type="curve" smooth="yes"/>
      <point x="600" y="416"/>
      <point x="586" y="281"/>
      <point x="506" y="281" type="curve" smooth="yes"/>
      <point x="428" y="281"/>
      <point x="414" y="416"/>
    </contour>
  </outline>
</glyph>
<glyph name="five" format="2">
  <advance width="1014"/>
  <unicode hex="0035"/>
  <outline>
    <contour>
      <point x="571" y="958" type="curve" smooth="yes"/>
      <point x="541" y="958"/>
      <point x="496" y="956"/>
      <point x="438" y="940" type="curve"/>
      <point x="453" y="1161" type="line"/>
      <point x="852" y="1161" type="line"/>
      <point x="852" y="1462" type="line"/>
      <point x="164" y="1462" type="line"/>
      <point x="121" y="707" type="line"/>
      <point x="229" y="635" type="line"/>
      <point x="287" y="657"/>
      <point x="338" y="670"/>
      <point x="387" y="670" type="curve" smooth="yes"/>
      <point x="514" y="670"/>
      <point x="578" y="598"/>
      <point x="578" y="475" type="curve" smooth="yes"/>
      <point x="578" y="342"/>
      <point x="514" y="274"/>
      <point x="401" y="274" type="curve" smooth="yes"/>
      <point x="307" y="274"/>
      <point x="195" y="313"/>
      <point x="102" y="367" type="curve"/>
      <point x="102" y="55" type="line"/>
      <point x="193" y="4"/>
      <point x="299" y="-20"/>
      <point x="424" y="-20" type="curve" smooth="yes"/>
      <point x="764" y="-20"/>
      <point x="926" y="160"/>
      <point x="926" y="487" type="curve" smooth="yes"/>
      <point x="926" y="766"/>
      <point x="776" y="958"/>
    </contour>
  </outline>
</glyph>
<glyph name="six" format="2">
  <advance width="1014"/>
  <unicode hex="0036"/>
  <outline>
    <contour>
      <point x="66" y="618" type="curve" smooth="yes"/>
      <point x="66" y="217"/>
      <point x="238" y="-20"/>
      <point x="522" y="-20" type="curve" smooth="yes"/>
      <point x="793" y="-20"/>
      <point x="950" y="182"/>
      <point x="950" y="500" type="curve" smooth="yes"/>
      <point x="950" y="799"/>
      <point x="827" y="975"/>
      <point x="623" y="975" type="curve" smooth="yes"/>
      <point x="514" y="975"/>
      <point x="438" y="918"/>
      <point x="391" y="805" type="curve"/>
      <point x="383" y="805" type="line"/>
      <point x="391" y="1081"/>
      <point x="494" y="1196"/>
      <point x="705" y="1196" type="curve" smooth="yes"/>
      <point x="766" y="1196"/>
      <point x="825" y="1190"/>
      <point x="881" y="1178" type="curve"/>
      <point x="881" y="1466" type="line"/>
      <point x="811" y="1477"/>
      <point x="741" y="1483"/>
      <point x="672" y="1483" type="curve" smooth="yes"/>
      <point x="180" y="1483"/>
      <point x="66" y="1059"/>
    </contour>
    <contour>
      <point x="514" y="274" type="curve" smooth="yes"/>
      <point x="451" y="274"/>
      <point x="412" y="377"/>
      <point x="412" y="516" type="curve" smooth="yes"/>
      <point x="412" y="612"/>
      <point x="455" y="688"/>
      <point x="516" y="688" type="curve" smooth="yes"/>
      <point x="582" y="688"/>
      <point x="612" y="623"/>
      <point x="612" y="494" type="curve" smooth="yes"/>
      <point x="612" y="342"/>
      <point x="571" y="274"/>
    </contour>
  </outline>
</glyph>
<glyph name="nine" format="2">
  <advance width="1014"/>
  <unicode hex="0039"/>
  <outline>
    <contour>
      <point x="948" y="846" type="curve" smooth="yes"/>
      <point x="948" y="1245"/>
      <point x="774" y="1483"/>
      <point x="492" y="1483" type="curve" smooth="yes"/>
      <point x="221" y="1483"/>
      <point x="61" y="1282"/>
      <point x="61" y="963" type="curve" smooth="yes"/>
      <point x="61" y="668"/>
      <point x="182" y="487"/>
      <point x="391" y="487" type="curve" smooth="yes"/>
      <point x="498" y="487"/>
      <point x="573" y="545"/>
      <point x="621" y="657" type="curve"/>
      <point x="631" y="657" type="line"/>
      <point x="623" y="383"/>
      <point x="520" y="266"/>
      <point x="309" y="266" type="curve" smooth="yes"/>
      <point x="248" y="266"/>
      <point x="188" y="272"/>
      <point x="133" y="287" type="curve"/>
      <point x="133" y="-2" type="line"/>
      <point x="201" y="-14"/>
      <point x="270" y="-20"/>
      <point x="342" y="-20" type="curve" smooth="yes"/>
      <point x="807" y="-20"/>
      <point x="948" y="381"/>
    </contour>
    <contour>
      <point x="498" y="1188" type="curve"/>
      <point x="592" y="1188"/>
      <point x="602" y="1012"/>
      <point x="602" y="946" type="curve" smooth="yes"/>
      <point x="602" y="881"/>
      <point x="575" y="774"/>
      <point x="496" y="774" type="curve" smooth="yes"/>
      <point x="432" y="774"/>
      <point x="399" y="840"/>
      <point x="399" y="969" type="curve" smooth="yes"/>
      <point x="399" y="1120"/>
      <point x="440" y="1188"/>
    </contour>
  </outline>
</glyph>
<glyph name="E" format="2">
  <advance width="907"/>
  <unicode hex="0045"/>
  <anchor x="477" y="0" name="bottom"/>
  <anchor x="469" y="1462" name="top"/>
  <anchor x="866" y="1462" name="topright"/>
  <outline>
    <contour>
      <point x="825" y="0" type="line"/>
      <point x="825" y="299" type="line"/>
      <point x="469" y="299" type="line"/>
      <point x="469" y="608" type="line"/>
      <point x="799" y="608" type="line"/>
      <point x="799" y="903" type="line"/>
      <point x="469" y="903" type="line"/>
      <point x="469" y="1167" type="line"/>
      <point x="825" y="1167" type="line"/>
      <point x="825" y="1462" type="line"/>
      <point x="121" y="1462" type="line"/>
      <point x="121" y="0" type="line"/>
    </contour>
  </outline>
</glyph>
<glyph name="H" format="2">
  <advance width="1247"/>
  <unicode hex="0048"/>
  <anchor x="621" y="0" name="bottom"/>
  <anchor x="621" y="731" name="center"/>
  <anchor x="623" y="1462" name="top"/>
  <anchor x="1206" y="1462" name="topright"/>
  <outline>
    <contour>
      <point x="1126" y="0" type="line"/>
      <point x="1126" y="1462" type="line"/>
      <point x="778" y="1462" type="line"/>
      <point x="778" y="909" type="line"/>
      <point x="469" y="909" type="line"/>
      <point x="469" y="1462" type="line"/>
      <point x="121" y="1462" type="line"/>
      <point x="121" y="0" type="line"/>
      <point x="469" y="0" type="line"/>
      <point x="469" y="610" type="line"/>
      <point x="778" y="610" type="line"/>
      <point x="778" y="0" type="line"/>
    </contour>
  </outline>
</glyph>
<glyph name="N" format="2">
  <advance width="1343"/>
  <unicode hex="004E"/>
  <anchor x="672" y="0" name="bottom"/>
  <anchor x="672" y="1462" name="top"/>
  <anchor x="1303" y="1462" name="topright"/>
  <outline>
    <contour>
      <point x="1223" y="0" type="line"/>
      <point x="1223" y="1462" type="line"/>
      <point x="897" y="1462" type="line"/>
      <point x="897" y="932" type="line" smooth="yes"/>
      <point x="897" y="844"/>
      <point x="903" y="725"/>
      <point x="911" y="578" type="curve"/>
      <point x="903" y="578" type="line"/>
      <point x="524" y="1462" type="line"/>
      <point x="121" y="1462" type="line"/>
      <point x="121" y="0" type="line"/>
      <point x="444" y="0" type="line"/>
      <point x="444" y="539" type="line" smooth="yes"/>
      <point x="444" y="623"/>
      <point x="440" y="748"/>
      <point x="428" y="909" type="curve"/>
      <point x="436" y="909" type="line"/>
      <point x="817" y="0" type="line"/>
    </contour>
  </outline>
</glyph>
<glyph name="o" format="2">
  <advance width="1057"/>
  <unicode hex="006F"/>
  <anchor x="526" y="0" name="bottom"/>
  <anchor x="528" y="567" name="center"/>
  <anchor x="528" y="1133" name="top"/>
  <anchor x="1016" y="1133" name="topright"/>
  <outline>
    <contour>
      <point x="989" y="569" type="curve" smooth="yes"/>
      <point x="989" y="942"/>
      <point x="805" y="1153"/>
      <point x="530" y="1153" type="curve" smooth="yes"/>
      <point x="199" y="1153"/>
      <point x="66" y="895"/>
      <point x="66" y="569" type="curve" smooth="yes"/>
      <point x="66" y="270"/>
      <point x="205" y="-20"/>
      <point x="526" y="-20" type="curve" smooth="yes"/>
      <point x="874" y="-20"/>
      <point x="989" y="279"/>
    </contour>
    <contour>
      <point x="401" y="565" type="curve" smooth="yes"/>
      <point x="401" y="778"/>
      <point x="440" y="877"/>
      <point x="528" y="877" type="curve" smooth="yes"/>
      <point x="621" y="877"/>
      <point x="653" y="776"/>
      <point x="653" y="569" type="curve" smooth="yes"/>
      <point x="653" y="360"/>
      <point x="621" y="256"/>
      <point x="528" y="256" type="curve" smooth="yes"/>
      <point x="440" y="256"/>
      <point x="401" y="362"/>
    </contour>
  </outline>
</glyph>
<glyph name="s" format="2">
  <advance width="811"/>
  <unicode hex="0073"/>
  <anchor x="377" y="0" name="bottom"/>
  <anchor x="418" y="1133" name="top"/>
  <anchor x="770" y="1133" name="topright"/>
  <outline>
    <contour>
      <point x="762" y="348" type="curve" smooth="yes"/>
      <point x="762" y="522"/>
      <point x="668" y="623"/>
      <point x="530" y="700" type="curve" smooth="yes"/>
      <point x="385" y="786"/>
      <point x="371" y="799"/>
      <point x="371" y="836" type="curve" smooth="yes"/>
      <point x="371" y="872"/>
      <point x="393" y="889"/>
      <point x="440" y="889" type="curve" smooth="yes"/>
      <point x="518" y="889"/>
      <point x="596" y="850"/>
      <point x="664" y="805" type="curve"/>
      <point x="745" y="1057" type="line"/>
      <point x="637" y="1120"/>
      <point x="537" y="1153"/>
      <point x="420" y="1153" type="curve" smooth="yes"/>
      <point x="184" y="1153"/>
      <point x="51" y="1030"/>
      <point x="51" y="819" type="curve" smooth="yes"/>
      <point x="51" y="659"/>
      <point x="123" y="543"/>
      <point x="262" y="473" type="curve" smooth="yes"/>
      <point x="420" y="395"/>
      <point x="432" y="367"/>
      <point x="432" y="330" type="curve" smooth="yes"/>
      <point x="432" y="283"/>
      <point x="401" y="264"/>
      <point x="340" y="264" type="curve" smooth="yes"/>
      <point x="238" y="264"/>
      <point x="135" y="307"/>
      <point x="53" y="356" type="curve"/>
      <point x="53" y="43" type="line"/>
      <point x="158" y="-4"/>
      <point x="264" y="-20"/>
      <point x="375" y="-20" type="curve" smooth="yes"/>
      <point x="618" y="-20"/>
      <point x="762" y="104"/>
    </contour>
  </outline>
</glyph>
<glyph name="v" format="2">
  <advance width="1006"/>
  <unicode hex="0076"/>
  <anchor x="502" y="0" name="bottom"/>
  <anchor x="506" y="1133" name="top"/>
  <anchor x="965" y="1133" name="topright"/>
  <outline>
    <contour>
      <point x="326" y="0" type="line"/>
      <point x="682" y="0" type="line"/>
      <point x="1001" y="1133" type="line"/>
      <point x="657" y="1133" type="line"/>
      <point x="537" y="580" type="line" smooth="yes"/>
      <point x="518" y="496"/>
      <point x="506" y="418"/>
      <point x="504" y="348" type="curve"/>
      <point x="496" y="348" type="line"/>
      <point x="492" y="432"/>
      <point x="479" y="504"/>
      <point x="463" y="582" type="curve" smooth="yes"/>
      <point x="348" y="1133" type="line"/>
      <point x="4" y="1133" type="line"/>
    </contour>
  </outline>
</glyph>
<glyph name="exclamdown" format="2">
  <advance width="555"/>
  <unicode hex="00A1"/>
  <outline>
    <contour>
      <point x="135" y="612" type="line"/>
      <point x="86" y="-369" type="line"/>
      <point x="469" y="-369" type="line"/>
      <point x="422" y="612" type="line"/>
    </contour>
    <contour>
      <point x="469" y="963" type="curve" smooth="yes"/>
      <point x="469" y="1083"/>
      <point x="395" y="1153"/>
      <point x="279" y="1153" type="curve" smooth="yes"/>
      <point x="162" y="1153"/>
      <point x="94" y="1081"/>
      <point x="94" y="963" type="curve" smooth="yes"/>
      <point x="94" y="840"/>
      <point x="160" y="770"/>
      <point x="279" y="770" type="curve" smooth="yes"/>
      <point x="401" y="770"/>
      <point x="469" y="840"/>
    </contour>
  </outline>
</glyph>
<glyph name="cent" format="2">
  <advance width="1014"/>
  <unicode hex="00A2"/>
  <outline>
    <contour>
      <point x="639" y="1483" type="line"/>
      <point x="463" y="1483" type="line"/>
      <point x="463" y="1321" type="line"/>
      <point x="225" y="1292"/>
      <point x="111" y="1061"/>
      <point x="111" y="739" type="curve" smooth="yes"/>
      <point x="111" y="408"/>
      <point x="217" y="190"/>
      <point x="463" y="166" type="curve"/>
      <point x="463" y="-20" type="line"/>
      <point x="639" y="-20" type="line"/>
      <point x="639" y="166" type="line"/>
      <point x="713" y="178"/>
      <point x="797" y="213"/>
      <point x="854" y="258" type="curve"/>
      <point x="854" y="541" type="line"/>
      <point x="776" y="477"/>
      <point x="676" y="440"/>
      <point x="594" y="440" type="curve" smooth="yes"/>
      <point x="489" y="440"/>
      <point x="446" y="518"/>
      <point x="446" y="739" type="curve" smooth="yes"/>
      <point x="446" y="971"/>
      <point x="502" y="1049"/>
      <point x="600" y="1049" type="curve" smooth="yes"/>
      <point x="657" y="1049"/>
      <point x="733" y="1026"/>
      <point x="797" y="981" type="curve"/>
      <point x="883" y="1245" type="line"/>
      <point x="811" y="1290"/>
      <point x="717" y="1319"/>
      <point x="639" y="1327" type="curve"/>
    </contour>
  </outline>
</glyph>
<glyph name="paragraph" format="2">
  <advance width="1044"/>
  <unicode hex="00B6"/>
  <outline>
    <contour>
      <point x="944" y="-260" type="line"/>
      <point x="944" y="1556" type="line"/>
      <point x="410" y="1556" type="line" smooth="yes"/>
      <point x="170" y="1556"/>
      <point x="66" y="1382"/>
      <point x="66" y="1042" type="curve" smooth="yes"/>
      <point x="66" y="707"/>
      <point x="166" y="541"/>
      <point x="385" y="541" type="curve" smooth="yes"/>
      <point x="422" y="541"/>
      <point x="455" y="547"/>
      <point x="481" y="559" type="curve"/>
      <point x="481" y="-260" type="line"/>
      <point x="653" y="-260" type="line"/>
      <point x="653" y="1397" type="line"/>
      <point x="772" y="1397" type="line"/>
      <point x="772" y="-260" type="line"/>
    </contour>
  </outline>
</glyph>
<glyph name="onesuperior" format="2">
  <advance width="713"/>
  <unicode hex="00B9"/>
  <outline>
    <contour>
      <point x="553" y="1729" type="line"/>
      <point x="360" y="1729" type="line"/>
      <point x="66" y="1470" type="line"/>
      <point x="180" y="1315" type="line"/>
      <point x="272" y="1391" type="line" smooth="yes"/>
      <point x="285" y="1401"/>
      <point x="301" y="1415"/>
      <point x="319" y="1436" type="curve"/>
      <point x="311" y="1354"/>
      <point x="311" y="1282"/>
      <point x="311" y="1208" type="curve" smooth="yes"/>
      <point x="311" y="852" type="line"/>
      <point x="553" y="852" type="line"/>
    </contour>
  </outline>
</glyph>
<glyph name="Thorn" format="2">
  <advance width="1024"/>
  <unicode hex="00DE"/>
  <anchor x="512" y="0" name="bottom"/>
  <anchor x="512" y="1462" name="top"/>
  <outline>
    <contour>
      <point x="987" y="784" type="curve" smooth="yes"/>
      <point x="987" y="1081"/>
      <point x="842" y="1249"/>
      <point x="551" y="1249" type="curve" smooth="yes"/>
      <point x="469" y="1249" type="line"/>
      <point x="469" y="1462" type="line"/>
      <point x="121" y="1462" type="line"/>
      <point x="121" y="0" type="line"/>
      <point x="469" y="0" type="line"/>
      <point x="469" y="272" type="line"/>
      <point x="541" y="272" type="line" smooth="yes"/>
      <point x="858" y="272"/>
      <point x="987" y="504"/>
    </contour>
    <contour>
      <point x="469" y="565" type="line"/>
      <point x="469" y="954" type="line"/>
      <point x="526" y="954" type="line" smooth="yes"/>
      <point x="604" y="954"/>
      <point x="643" y="897"/>
      <point x="643" y="782" type="curve" smooth="yes"/>
      <point x="643" y="627"/>
      <point x="590" y="565"/>
      <point x="506" y="565" type="curve" smooth="yes"/>
    </contour>
  </outline>
</glyph>
<glyph name="Hbar" format="2">
  <advance width="1247"/>
  <unicode hex="0126"/>
  <anchor x="625" y="0" name="bottom"/>
  <anchor x="625" y="1462" name="top"/>
  <outline>
    <contour>
      <point x="121" y="0" type="line"/>
      <point x="469" y="0" type="line"/>
      <point x="469" y="610" type="line"/>
      <point x="778" y="610" type="line"/>
      <point x="778" y="0" type="line"/>
      <point x="1126" y="0" type="line"/>
      <point x="1126" y="1067" type="line"/>
      <point x="1257" y="1067" type="line"/>
      <point x="1257" y="1300" type="line"/>
      <point x="1126" y="1300" type="line"/>
      <point x="1126" y="1462" type="line"/>
      <point x="778" y="1462" type="line"/>
      <point x="778" y="1300" type="line"/>
      <point x="469" y="1300" type="line"/>
      <point x="469" y="1462" type="line"/>
      <point x="121" y="1462" type="line"/>
      <point x="121" y="1300" type="line"/>
      <point x="-10" y="1300" type="line"/>
      <point x="-10" y="1067" type="line"/>
      <point x="121" y="1067" type="line"/>
    </contour>
    <contour>
      <point x="469" y="909" type="line"/>
      <point x="469" y="1067" type="line"/>
      <point x="778" y="1067" type="line"/>
      <point x="778" y="909" type="line"/>
    </contour>
  </outline>
</glyph>
<glyph name="hbar" format="2">
  <advance width="1083"/>
  <unicode hex="0127"/>
  <anchor x="543" y="0" name="bottom"/>
  <anchor x="268" y="1556" name="top"/>
  <outline>
    <contour>
      <point x="436" y="1556" type="line"/>
      <point x="102" y="1556" type="line"/>
      <point x="102" y="1409" type="line"/>
      <point x="-14" y="1409" type="line"/>
      <point x="-14" y="1176" type="line"/>
      <point x="102" y="1176" type="line"/>
      <point x="102" y="0" type="line"/>
      <point x="434" y="0" type="line"/>
      <point x="434" y="471" type="line" smooth="yes"/>
      <point x="434" y="731"/>
      <point x="463" y="811"/>
      <point x="563" y="811" type="curve" smooth="yes"/>
      <point x="623" y="811"/>
      <point x="651" y="735"/>
      <point x="651" y="584" type="curve" smooth="yes"/>
      <point x="651" y="0" type="line"/>
      <point x="983" y="0" type="line"/>
      <point x="983" y="690" type="line" smooth="yes"/>
      <point x="983" y="954"/>
      <point x="868" y="1106"/>
      <point x="672" y="1106" type="curve" smooth="yes"/>
      <point x="551" y="1106"/>
      <point x="471" y="1053"/>
      <point x="426" y="946" type="curve"/>
      <point x="408" y="946" type="line"/>
      <point x="426" y="1036"/>
      <point x="436" y="1110"/>
      <point x="436" y="1161" type="curve" smooth="yes"/>
      <point x="436" y="1176" type="line"/>
      <point x="616" y="1176" type="line"/>
      <point x="616" y="1409" type="line"/>
      <point x="436" y="1409" type="line"/>
    </contour>
  </outline>
</glyph>
<glyph name="OE" format="2">
  <advance width="1536"/>
  <unicode hex="0152"/>
  <anchor x="768" y="0" name="bottom"/>
  <anchor x="768" y="1462" name="top"/>
  <outline>
    <contour>
      <point x="612" y="1485" type="curve" smooth="yes"/>
      <point x="244" y="1485"/>
      <point x="80" y="1171"/>
      <point x="80" y="735" type="curve" smooth="yes"/>
      <point x="80" y="305"/>
      <point x="240" y="-20"/>
      <point x="616" y="-20" type="curve" smooth="yes"/>
      <point x="676" y="-20"/>
      <point x="723" y="-12"/>
      <point x="760" y="0" type="curve"/>
      <point x="1454" y="0" type="line"/>
      <point x="1454" y="299" type="line"/>
      <point x="1098" y="299" type="line"/>
      <point x="1098" y="608" type="line"/>
      <point x="1427" y="608" type="line"/>
      <point x="1427" y="903" type="line"/>
      <point x="1098" y="903" type="line"/>
      <point x="1098" y="1167" type="line"/>
      <point x="1454" y="1167" type="line"/>
      <point x="1454" y="1462" type="line"/>
      <point x="760" y="1462" type="line"/>
      <point x="721" y="1477"/>
      <point x="672" y="1485"/>
    </contour>
    <contour>
      <point x="637" y="1186" type="curve" smooth="yes"/>
      <point x="688" y="1186"/>
      <point x="729" y="1176"/>
      <point x="760" y="1157" type="curve"/>
      <point x="760" y="299" type="line"/>
      <point x="729" y="291"/>
      <point x="688" y="285"/>
      <point x="637" y="285" type="curve" smooth="yes"/>
      <point x="508" y="285"/>
      <point x="442" y="434"/>
      <point x="442" y="733" type="curve" smooth="yes"/>
      <point x="442" y="1034"/>
      <point x="508" y="1186"/>
    </contour>
  </outline>
</glyph>
<glyph name="Tbar" format="2">
  <advance width="942"/>
  <unicode hex="0166"/>
  <anchor x="471" y="0" name="bottom"/>
  <anchor x="471" y="1462" name="top"/>
  <outline>
    <contour>
      <point x="299" y="0" type="line"/>
      <point x="645" y="0" type="line"/>
      <point x="645" y="582" type="line"/>
      <point x="811" y="582" type="line"/>
      <point x="811" y="838" type="line"/>
      <point x="645" y="838" type="line"/>
      <point x="645" y="1161" type="line"/>
      <point x="907" y="1161" type="line"/>
      <point x="907" y="1462" type="line"/>
      <point x="35" y="1462" type="line"/>
      <point x="35" y="1161" type="line"/>
      <point x="299" y="1161" type="line"/>
      <point x="299" y="838" type="line"/>
      <point x="133" y="838" type="line"/>
      <point x="133" y="582" type="line"/>
      <point x="299" y="582" type="line"/>
    </contour>
  </outline>
</glyph>
<glyph name="uni0183" format="2">
  <advance width="1073"/>
  <unicode hex="0183"/>
  <anchor x="537" y="0" name="bottom"/>
  <anchor x="537" y="1556" name="top"/>
  <outline>
    <contour>
      <point x="672" y="-20" type="curve" smooth="yes"/>
      <point x="885" y="-20"/>
      <point x="1008" y="195"/>
      <point x="1008" y="545" type="curve" smooth="yes"/>
      <point x="1008" y="897"/>
      <point x="881" y="1108"/>
      <point x="680" y="1108" type="curve" smooth="yes"/>
      <point x="578" y="1108"/>
      <point x="496" y="1059"/>
      <point x="434" y="942" type="curve"/>
      <point x="424" y="942" type="line"/>
      <point x="430" y="1044"/>
      <point x="434" y="1116"/>
      <point x="434" y="1159" type="curve" smooth="yes"/>
      <point x="434" y="1280" type="line"/>
      <point x="905" y="1280" type="line"/>
      <point x="905" y="1556" type="line"/>
      <point x="102" y="1556" type="line"/>
      <point x="102" y="0" type="line"/>
      <point x="369" y="0" type="line"/>
      <point x="418" y="111" type="line"/>
      <point x="434" y="111" type="line"/>
      <point x="514" y="6"/>
      <point x="571" y="-20"/>
    </contour>
    <contour>
      <point x="561" y="256" type="curve" smooth="yes"/>
      <point x="471" y="256"/>
      <point x="434" y="352"/>
      <point x="434" y="543" type="curve" smooth="yes"/>
      <point x="434" y="584" type="line" smooth="yes"/>
      <point x="434" y="754"/>
      <point x="471" y="823"/>
      <point x="559" y="823" type="curve" smooth="yes"/>
      <point x="635" y="823"/>
      <point x="672" y="735"/>
      <point x="672" y="549" type="curve" smooth="yes"/>
      <point x="672" y="346"/>
      <point x="633" y="256"/>
    </contour>
  </outline>
</glyph>
<glyph name="uni018C" format="2">
  <advance width="1073"/>
  <unicode hex="018C"/>
  <anchor x="537" y="0" name="bottom"/>
  <anchor x="537" y="1556" name="top"/>
  <outline>
    <contour>
      <point x="403" y="-20" type="curve" smooth="yes"/>
      <point x="512" y="-20"/>
      <point x="567" y="16"/>
      <point x="639" y="111" type="curve"/>
      <point x="657" y="111" type="line"/>
      <point x="705" y="0" type="line"/>
      <point x="971" y="0" type="line"/>
      <point x="971" y="1556" type="line"/>
      <point x="164" y="1556" type="line"/>
      <point x="164" y="1280" type="line"/>
      <point x="639" y="1280" type="line"/>
      <point x="639" y="1171" type="line" smooth="yes"/>
      <point x="639" y="1128"/>
      <point x="643" y="1057"/>
      <point x="649" y="954" type="curve"/>
      <point x="639" y="954" type="line"/>
      <point x="578" y="1071"/>
      <point x="498" y="1120"/>
      <point x="393" y="1120" type="curve" smooth="yes"/>
      <point x="190" y="1120"/>
      <point x="66" y="901"/>
      <point x="66" y="559" type="curve" smooth="yes"/>
      <point x="66" y="197"/>
      <point x="188" y="-20"/>
    </contour>
    <contour>
      <point x="512" y="256" type="curve" smooth="yes"/>
      <point x="442" y="256"/>
      <point x="401" y="346"/>
      <point x="401" y="561" type="curve" smooth="yes"/>
      <point x="401" y="748"/>
      <point x="440" y="836"/>
      <point x="514" y="836" type="curve" smooth="yes"/>
      <point x="602" y="836"/>
      <point x="639" y="766"/>
      <point x="639" y="596" type="curve" smooth="yes"/>
      <point x="639" y="530" type="line" smooth="yes"/>
      <point x="639" y="328"/>
      <point x="602" y="256"/>
    </contour>
  </outline>
</glyph>
<glyph name="uni0191" format="2">
  <advance width="1159"/>
  <unicode hex="0191"/>
  <anchor x="350" y="0" name="bottom"/>
  <anchor x="760" y="1462" name="top"/>
  <anchor x="1139" y="1462" name="topright"/>
  <outline>
    <contour>
      <point x="387" y="-31" type="curve" smooth="yes"/>
      <point x="600" y="-31"/>
      <point x="776" y="100"/>
      <point x="776" y="377" type="curve" smooth="yes"/>
      <point x="776" y="621" type="line"/>
      <point x="1061" y="621" type="line"/>
      <point x="1061" y="915" type="line"/>
      <point x="776" y="915" type="line"/>
      <point x="776" y="1167" type="line"/>
      <point x="1087" y="1167" type="line"/>
      <point x="1087" y="1462" type="line"/>
      <point x="428" y="1462" type="line"/>
      <point x="428" y="367" type="line" smooth="yes"/>
      <point x="428" y="297"/>
      <point x="401" y="246"/>
      <point x="352" y="246" type="curve" smooth="yes"/>
      <point x="307" y="246"/>
      <point x="272" y="272"/>
      <point x="272" y="340" type="curve" smooth="yes"/>
      <point x="272" y="375"/>
      <point x="281" y="403"/>
      <point x="299" y="446" type="curve"/>
      <point x="57" y="551" type="line"/>
      <point x="25" y="504"/>
      <point x="-4" y="418"/>
      <point x="-4" y="319" type="curve" smooth="yes"/>
      <point x="-4" y="102"/>
      <point x="145" y="-31"/>
    </contour>
  </outline>
</glyph>
<glyph name="uni01AD" format="2">
  <advance width="725"/>
  <unicode hex="01AD"/>
  <anchor x="362" y="0" name="bottom"/>
  <anchor x="362" y="1567" name="top"/>
  <outline>
    <contour>
      <point x="471" y="1567" type="curve" smooth="yes"/>
      <point x="252" y="1567"/>
      <point x="129" y="1415"/>
      <point x="129" y="1167" type="curve" smooth="yes"/>
      <point x="129" y="1106" type="line"/>
      <point x="14" y="1036" type="line"/>
      <point x="14" y="860" type="line"/>
      <point x="129" y="860" type="line"/>
      <point x="129" y="373" type="line" smooth="yes"/>
      <point x="129" y="106"/>
      <point x="219" y="-20"/>
      <point x="442" y="-20" type="curve" smooth="yes"/>
      <point x="535" y="-20"/>
      <point x="614" y="2"/>
      <point x="688" y="43" type="curve"/>
      <point x="688" y="305" type="line"/>
      <point x="633" y="281"/>
      <point x="584" y="266"/>
      <point x="543" y="266" type="curve" smooth="yes"/>
      <point x="487" y="266"/>
      <point x="461" y="303"/>
      <point x="461" y="377" type="curve" smooth="yes"/>
      <point x="461" y="860" type="line"/>
      <point x="674" y="860" type="line"/>
      <point x="674" y="1133" type="line"/>
      <point x="461" y="1133" type="line"/>
      <point x="461" y="1151" type="line" smooth="yes"/>
      <point x="461" y="1237"/>
      <point x="489" y="1280"/>
      <point x="551" y="1280" type="curve" smooth="yes"/>
      <point x="580" y="1280"/>
      <point x="610" y="1274"/>
      <point x="643" y="1262" type="curve"/>
      <point x="643" y="1542" type="line"/>
      <point x="606" y="1554"/>
      <point x="520" y="1567"/>
    </contour>
  </outline>
</glyph>
<glyph name="uhorn" format="2">
  <advance width="1329"/>
  <unicode hex="01B0"/>
  <anchor x="530" y="0" name="bottom"/>
  <anchor x="543" y="1133" name="top"/>
  <outline>
    <contour>
      <point x="1401" y="1298" type="line"/>
      <point x="1094" y="1298" type="line"/>
      <point x="1094" y="1153"/>
      <point x="1067" y="1016"/>
      <point x="981" y="999" type="curve"/>
      <point x="981" y="1133" type="line"/>
      <point x="649" y="1133" type="line"/>
      <point x="649" y="614" type="line" smooth="yes"/>
      <point x="649" y="354"/>
      <point x="614" y="274"/>
      <point x="520" y="274" type="curve" smooth="yes"/>
      <point x="455" y="274"/>
      <point x="432" y="352"/>
      <point x="432" y="504" type="curve" smooth="yes"/>
      <point x="432" y="1133" type="line"/>
      <point x="100" y="1133" type="line"/>
      <point x="100" y="395" type="line" smooth="yes"/>
      <point x="100" y="131"/>
      <point x="215" y="-20"/>
      <point x="414" y="-20" type="curve" smooth="yes"/>
      <point x="535" y="-20"/>
      <point x="614" y="33"/>
      <point x="668" y="139" type="curve"/>
      <point x="684" y="139" type="line"/>
      <point x="723" y="0" type="line"/>
      <point x="981" y="0" type="line"/>
      <point x="981" y="778" type="line"/>
      <point x="1225" y="784"/>
      <point x="1372" y="897"/>
      <point x="1409" y="1276" type="curve"/>
    </contour>
  </outline>
</glyph>
<glyph name="uni01BC" format="2">
  <advance width="1014"/>
  <unicode hex="01BC"/>
  <anchor x="508" y="0" name="bottom"/>
  <anchor x="508" y="1462" name="top"/>
  <outline>
    <contour>
      <point x="424" y="-20" type="curve" smooth="yes"/>
      <point x="764" y="-20"/>
      <point x="926" y="160"/>
      <point x="926" y="487" type="curve" smooth="yes"/>
      <point x="926" y="766"/>
      <point x="807" y="958"/>
      <point x="535" y="958" type="curve" smooth="yes"/>
      <point x="516" y="958" type="line"/>
      <point x="516" y="1167" type="line"/>
      <point x="872" y="1167" type="line"/>
      <point x="872" y="1462" type="line"/>
      <point x="41" y="1462" type="line"/>
      <point x="41" y="1167" type="line"/>
      <point x="184" y="1167" type="line"/>
      <point x="184" y="670" type="line"/>
      <point x="387" y="670" type="line" smooth="yes"/>
      <point x="514" y="670"/>
      <point x="578" y="598"/>
      <point x="578" y="475" type="curve" smooth="yes"/>
      <point x="578" y="342"/>
      <point x="514" y="274"/>
      <point x="401" y="274" type="curve" smooth="yes"/>
      <point x="307" y="274"/>
      <point x="195" y="313"/>
      <point x="102" y="367" type="curve"/>
      <point x="102" y="55" type="line"/>
      <point x="193" y="4"/>
      <point x="299" y="-20"/>
    </contour>
  </outline>
</glyph>
<glyph name="uni01C0" format="2">
  <advance width="657"/>
  <unicode hex="01C0"/>
  <anchor x="330" y="0" name="bottom"/>
  <anchor x="330" y="1579" name="top"/>
  <outline>
    <contour>
      <point x="184" y="0" type="line"/>
      <point x="473" y="0" type="line"/>
      <point x="473" y="1579" type="line"/>
      <point x="184" y="1579" type="line"/>
    </contour>
  </outline>
</glyph>
<glyph name="uni01C2" format="2">
  <advance width="868"/>
  <unicode hex="01C2"/>
  <anchor x="434" y="0" name="bottom"/>
  <anchor x="434" y="1577" name="top"/>
  <outline>
    <contour>
      <point x="575" y="1577" type="line"/>
      <point x="287" y="1577" type="line"/>
      <point x="287" y="1151" type="line"/>
      <point x="61" y="1151" type="line"/>
      <point x="61" y="889" type="line"/>
      <point x="287" y="889" type="line"/>
      <point x="287" y="729" type="line"/>
      <point x="61" y="729" type="line"/>
      <point x="61" y="467" type="line"/>
      <point x="287" y="467" type="line"/>
      <point x="287" y="0" type="line"/>
      <point x="575" y="0" type="line"/>
      <point x="575" y="467" type="line"/>
      <point x="807" y="467" type="line"/>
      <point x="807" y="729" type="line"/>
      <point x="575" y="729" type="line"/>
      <point x="575" y="889" type="line"/>
      <point x="807" y="889" type="line"/>
      <point x="807" y="1151" type="line"/>
      <point x="575" y="1151" type="line"/>
    </contour>
  </outline>
</glyph>
<glyph name="uni01E4" format="2">
  <advance width="1214"/>
  <unicode hex="01E4"/>
  <anchor x="670" y="0" name="bottom"/>
  <anchor x="711" y="1462" name="top"/>
  <outline>
    <contour>
      <point x="643" y="-20" type="curve" smooth="yes"/>
      <point x="807" y="-20"/>
      <point x="963" y="8"/>
      <point x="1114" y="68" type="curve"/>
      <point x="1114" y="328" type="line"/>
      <point x="1208" y="328" type="line"/>
      <point x="1208" y="563" type="line"/>
      <point x="1114" y="563" type="line"/>
      <point x="1114" y="897" type="line"/>
      <point x="604" y="897" type="line"/>
      <point x="604" y="627" type="line"/>
      <point x="772" y="627" type="line"/>
      <point x="772" y="563" type="line"/>
      <point x="604" y="563" type="line"/>
      <point x="604" y="328" type="line"/>
      <point x="772" y="328" type="line"/>
      <point x="772" y="276" type="line"/>
      <point x="737" y="266"/>
      <point x="700" y="260"/>
      <point x="664" y="260" type="curve" smooth="yes"/>
      <point x="518" y="260"/>
      <point x="442" y="420"/>
      <point x="442" y="725" type="curve" smooth="yes"/>
      <point x="442" y="1020"/>
      <point x="537" y="1184"/>
      <point x="723" y="1184" type="curve" smooth="yes"/>
      <point x="823" y="1184"/>
      <point x="915" y="1157"/>
      <point x="995" y="1106" type="curve"/>
      <point x="1092" y="1391" type="line"/>
      <point x="995" y="1444"/>
      <point x="862" y="1483"/>
      <point x="711" y="1483" type="curve" smooth="yes"/>
      <point x="313" y="1483"/>
      <point x="80" y="1204"/>
      <point x="80" y="735" type="curve" smooth="yes"/>
      <point x="80" y="252"/>
      <point x="283" y="-20"/>
    </contour>
  </outline>
</glyph>
<glyph name="uni021C" format="2">
  <advance width="1051"/>
  <unicode hex="021C"/>
  <anchor x="504" y="-223" name="bottom"/>
  <anchor x="492" y="1462" name="top"/>
  <outline>
    <contour>
      <point x="84" y="-369" type="line"/>
      <point x="702" y="-217"/>
      <point x="977" y="8"/>
      <point x="977" y="391" type="curve" smooth="yes"/>
      <point x="977" y="571"/>
      <point x="893" y="680"/>
      <point x="782" y="754" type="curve"/>
      <point x="885" y="838"/>
      <point x="934" y="942"/>
      <point x="934" y="1081" type="curve" smooth="yes"/>
      <point x="934" y="1348"/>
      <point x="770" y="1483"/>
      <point x="492" y="1483" type="curve" smooth="yes"/>
      <point x="309" y="1483"/>
      <point x="174" y="1440"/>
      <point x="49" y="1337" type="curve"/>
      <point x="193" y="1092" type="line"/>
      <point x="256" y="1143"/>
      <point x="360" y="1184"/>
      <point x="438" y="1184" type="curve" smooth="yes"/>
      <point x="512" y="1184"/>
      <point x="584" y="1157"/>
      <point x="584" y="1057" type="curve" smooth="yes"/>
      <point x="584" y="936"/>
      <point x="504" y="887"/>
      <point x="246" y="813" type="curve"/>
      <point x="315" y="551" type="line"/>
      <point x="397" y="571"/>
      <point x="471" y="594"/>
      <point x="537" y="618" type="curve"/>
      <point x="588" y="569"/>
      <point x="621" y="502"/>
      <point x="621" y="403" type="curve" smooth="yes"/>
      <point x="621" y="211"/>
      <point x="555" y="72"/>
      <point x="84" y="-61" type="curve"/>
    </contour>
  </outline>
</glyph>
<glyph name="uni023F" format="2">
  <advance width="811"/>
  <unicode hex="023F"/>
  <anchor x="406" y="-492" name="bottom"/>
  <anchor x="406" y="1133" name="top"/>
  <outline>
    <contour>
      <point x="573" y="-492" type="curve" smooth="yes"/>
      <point x="629" y="-492"/>
      <point x="676" y="-479"/>
      <point x="711" y="-465" type="curve"/>
      <point x="711" y="-221" type="line"/>
      <point x="694" y="-227"/>
      <point x="672" y="-238"/>
      <point x="633" y="-238" type="curve" smooth="yes"/>
      <point x="565" y="-238"/>
      <point x="535" y="-178"/>
      <point x="504" y="-92" type="curve" smooth="yes"/>
      <point x="492" y="-57"/>
      <point x="479" y="-31"/>
      <point x="465" y="-14" type="curve"/>
      <point x="653" y="14"/>
      <point x="762" y="137"/>
      <point x="762" y="348" type="curve" smooth="yes"/>
      <point x="762" y="522"/>
      <point x="668" y="623"/>
      <point x="530" y="700" type="curve" smooth="yes"/>
      <point x="385" y="786"/>
      <point x="371" y="799"/>
      <point x="371" y="836" type="curve" smooth="yes"/>
      <point x="371" y="872"/>
      <point x="393" y="889"/>
      <point x="440" y="889" type="curve" smooth="yes"/>
      <point x="518" y="889"/>
      <point x="596" y="850"/>
      <point x="664" y="805" type="curve"/>
      <point x="745" y="1057" type="line"/>
      <point x="637" y="1120"/>
      <point x="537" y="1153"/>
      <point x="420" y="1153" type="curve" smooth="yes"/>
      <point x="184" y="1153"/>
      <point x="51" y="1030"/>
      <point x="51" y="819" type="curve" smooth="yes"/>
      <point x="51" y="659"/>
      <point x="125" y="547"/>
      <point x="262" y="473" type="curve" smooth="yes"/>
      <point x="420" y="389"/>
      <point x="432" y="367"/>
      <point x="432" y="330" type="curve" smooth="yes"/>
      <point x="432" y="283"/>
      <point x="401" y="264"/>
      <point x="340" y="264" type="curve" smooth="yes"/>
      <point x="238" y="264"/>
      <point x="135" y="307"/>
      <point x="53" y="356" type="curve"/>
      <point x="53" y="43" type="line"/>
      <point x="59" y="41"/>
      <point x="66" y="37"/>
      <point x="72" y="35" type="curve"/>
      <point x="141" y="0"/>
      <point x="186" y="-45"/>
      <point x="227" y="-178" type="curve" smooth="yes"/>
      <point x="283" y="-356"/>
      <point x="340" y="-492"/>
    </contour>
  </outline>
</glyph>
<glyph name="uni0264" format="2">
  <advance width="1034"/>
  <unicode hex="0264"/>
  <anchor x="518" y="0" name="bottom"/>
  <anchor x="518" y="1133" name="top"/>
  <outline>
    <contour>
      <point x="866" y="1145" type="curve"/>
      <point x="750" y="1145"/>
      <point x="688" y="1124"/>
      <point x="614" y="979" type="curve" smooth="yes"/>
      <point x="563" y="879" type="line" smooth="yes"/>
      <point x="549" y="850"/>
      <point x="532" y="813"/>
      <point x="526" y="791" type="curve"/>
      <point x="520" y="791" type="line"/>
      <point x="512" y="813"/>
      <point x="496" y="852"/>
      <point x="481" y="879" type="curve" smooth="yes"/>
      <point x="428" y="981" type="line" smooth="yes"/>
      <point x="373" y="1085"/>
      <point x="319" y="1145"/>
      <point x="164" y="1145" type="curve"/>
      <point x="121" y="1145"/>
      <point x="51" y="1133"/>
      <point x="20" y="1116" type="curve"/>
      <point x="20" y="846" type="line"/>
      <point x="39" y="850"/>
      <point x="59" y="854"/>
      <point x="78" y="854" type="curve"/>
      <point x="139" y="854"/>
      <point x="186" y="815"/>
      <point x="244" y="700" type="curve" smooth="yes"/>
      <point x="309" y="569" type="line"/>
      <point x="252" y="492"/>
      <point x="201" y="381"/>
      <point x="201" y="260" type="curve" smooth="yes"/>
      <point x="201" y="86"/>
      <point x="317" y="-20"/>
      <point x="518" y="-20" type="curve"/>
      <point x="721" y="-20"/>
      <point x="848" y="74"/>
      <point x="848" y="258" type="curve" smooth="yes"/>
      <point x="848" y="379"/>
      <point x="788" y="487"/>
      <point x="717" y="573" type="curve"/>
      <point x="795" y="707" type="line" smooth="yes"/>
      <point x="862" y="823"/>
      <point x="885" y="850"/>
      <point x="973" y="850" type="curve" smooth="yes"/>
      <point x="989" y="850"/>
      <point x="989" y="850"/>
      <point x="1014" y="846" type="curve"/>
      <point x="1014" y="1116" type="line"/>
      <point x="985" y="1133"/>
      <point x="909" y="1145"/>
    </contour>
    <contour>
      <point x="522" y="399" type="curve"/>
      <point x="557" y="344"/>
      <point x="569" y="297"/>
      <point x="569" y="252" type="curve" smooth="yes"/>
      <point x="569" y="211"/>
      <point x="555" y="182"/>
      <point x="522" y="182" type="curve"/>
      <point x="494" y="182"/>
      <point x="479" y="207"/>
      <point x="479" y="258" type="curve" smooth="yes"/>
      <point x="479" y="299"/>
      <point x="485" y="344"/>
    </contour>
  </outline>
</glyph>
<glyph name="uni026D" format="2">
  <advance width="547"/>
  <unicode hex="026D"/>
  <anchor x="274" y="-492" name="bottom"/>
  <anchor x="274" y="1556" name="top"/>
  <outline>
    <contour>
      <point x="414" y="-492" type="curve" smooth="yes"/>
      <point x="504" y="-492"/>
      <point x="584" y="-471"/>
      <point x="649" y="-428" type="curve"/>
      <point x="649" y="-162" type="line"/>
      <point x="598" y="-190"/>
      <point x="561" y="-205"/>
      <point x="512" y="-205" type="curve" smooth="yes"/>
      <point x="461" y="-205"/>
      <point x="434" y="-172"/>
      <point x="434" y="-106" type="curve" smooth="yes"/>
      <point x="434" y="1556" type="line"/>
      <point x="102" y="1556" type="line"/>
      <point x="102" y="-111" type="line" smooth="yes"/>
      <point x="102" y="-385"/>
      <point x="201" y="-492"/>
    </contour>
  </outline>
</glyph>
<glyph name="uni027B" format="2">
  <advance width="768"/>
  <unicode hex="027B"/>
  <anchor x="385" y="-492" name="bottom"/>
  <anchor x="385" y="1133" name="top"/>
  <outline>
    <contour>
      <point x="643" y="-492" type="curve" smooth="yes"/>
      <point x="733" y="-492"/>
      <point x="813" y="-471"/>
      <point x="879" y="-428" type="curve"/>
      <point x="879" y="-162" type="line"/>
      <point x="827" y="-190"/>
      <point x="791" y="-205"/>
      <point x="741" y="-205" type="curve" smooth="yes"/>
      <point x="690" y="-205"/>
      <point x="664" y="-176"/>
      <point x="664" y="-111" type="curve" smooth="yes"/>
      <point x="664" y="1133" type="line"/>
      <point x="332" y="1133" type="line"/>
      <point x="332" y="563" type="line" smooth="yes"/>
      <point x="332" y="416"/>
      <point x="276" y="336"/>
      <point x="145" y="336" type="curve" smooth="yes"/>
      <point x="102" y="336"/>
      <point x="70" y="340"/>
      <point x="43" y="348" type="curve"/>
      <point x="16" y="-8" type="line"/>
      <point x="57" y="-18"/>
      <point x="82" y="-20"/>
      <point x="109" y="-20" type="curve" smooth="yes"/>
      <point x="221" y="-20"/>
      <point x="301" y="88"/>
      <point x="340" y="180" type="curve"/>
      <point x="354" y="180" type="line"/>
      <point x="344" y="121"/>
      <point x="332" y="59"/>
      <point x="332" y="0" type="curve" smooth="yes"/>
      <point x="332" y="-111" type="line" smooth="yes"/>
      <point x="332" y="-385"/>
      <point x="430" y="-492"/>
    </contour>
  </outline>
</glyph>
<glyph name="uni028B" format="2">
  <advance width="1139"/>
  <unicode hex="028B"/>
  <anchor x="569" y="0" name="bottom"/>
  <anchor x="569" y="1133" name="top"/>
  <outline>
    <contour>
      <point x="727" y="1153" type="curve" smooth="yes"/>
      <point x="662" y="1153"/>
      <point x="602" y="1143"/>
      <point x="549" y="1120" type="curve"/>
      <point x="549" y="852" type="line"/>
      <point x="575" y="862"/>
      <point x="600" y="866"/>
      <point x="629" y="866" type="curve" smooth="yes"/>
      <point x="680" y="866"/>
      <point x="707" y="838"/>
      <point x="707" y="772" type="curve" smooth="yes"/>
      <point x="707" y="473" type="line" smooth="yes"/>
      <point x="707" y="322"/>
      <point x="666" y="274"/>
      <point x="569" y="274" type="curve" smooth="yes"/>
      <point x="473" y="274"/>
      <point x="432" y="322"/>
      <point x="432" y="473" type="curve" smooth="yes"/>
      <point x="432" y="1133" type="line"/>
      <point x="100" y="1133" type="line"/>
      <point x="100" y="395" type="line" smooth="yes"/>
      <point x="100" y="131"/>
      <point x="240" y="-20"/>
      <point x="569" y="-20" type="curve" smooth="yes"/>
      <point x="899" y="-20"/>
      <point x="1038" y="135"/>
      <point x="1038" y="395" type="curve" smooth="yes"/>
      <point x="1038" y="772" type="line" smooth="yes"/>
      <point x="1038" y="1047"/>
      <point x="940" y="1153"/>
    </contour>
  </outline>
</glyph>
<glyph name="uni02AF" format="2">
  <advance width="1155"/>
  <unicode hex="02AF"/>
  <anchor x="578" y="-492" name="bottom"/>
  <anchor x="578" y="1133" name="top"/>
  <outline>
    <contour>
      <point x="162" y="1153" type="curve" smooth="yes"/>
      <point x="113" y="1153"/>
      <point x="27" y="1141"/>
      <point x="-10" y="1128" type="curve"/>
      <point x="-10" y="848" type="line"/>
      <point x="23" y="860"/>
      <point x="53" y="866"/>
      <point x="82" y="866" type="curve" smooth="yes"/>
      <point x="143" y="866"/>
      <point x="172" y="829"/>
      <point x="172" y="750" type="curve" smooth="yes"/>
      <point x="172" y="395" type="line" smooth="yes"/>
      <point x="172" y="131"/>
      <point x="287" y="-20"/>
      <point x="483" y="-20" type="curve" smooth="yes"/>
      <point x="604" y="-20"/>
      <point x="684" y="33"/>
      <point x="729" y="139" type="curve"/>
      <point x="748" y="139" type="line"/>
      <point x="729" y="49"/>
      <point x="719" y="-23"/>
      <point x="719" y="-70" type="curve" smooth="yes"/>
      <point x="719" y="-172" type="line" smooth="yes"/>
      <point x="719" y="-385"/>
      <point x="817" y="-492"/>
      <point x="1030" y="-492" type="curve" smooth="yes"/>
      <point x="1120" y="-492"/>
      <point x="1200" y="-471"/>
      <point x="1266" y="-428" type="curve"/>
      <point x="1266" y="-162" type="line"/>
      <point x="1214" y="-190"/>
      <point x="1178" y="-205"/>
      <point x="1128" y="-205" type="curve" smooth="yes"/>
      <point x="1077" y="-205"/>
      <point x="1053" y="-172"/>
      <point x="1053" y="-106" type="curve"/>
      <point x="1053" y="1133" type="line"/>
      <point x="721" y="1133" type="line"/>
      <point x="721" y="614" type="line" smooth="yes"/>
      <point x="721" y="381"/>
      <point x="700" y="274"/>
      <point x="592" y="274" type="curve" smooth="yes"/>
      <point x="532" y="274"/>
      <point x="504" y="350"/>
      <point x="504" y="502" type="curve" smooth="yes"/>
      <point x="504" y="784" type="line" smooth="yes"/>
      <point x="504" y="1032"/>
      <point x="381" y="1153"/>
    </contour>
  </outline>
</glyph>
<glyph name="uni02D0" format="2">
  <advance width="494"/>
  <unicode hex="02D0"/>
  <outline>
    <contour>
      <point x="246" y="848" type="line"/>
      <point x="393" y="1133" type="line"/>
      <point x="100" y="1133" type="line"/>
    </contour>
    <contour>
      <point x="100" y="0" type="line"/>
      <point x="393" y="0" type="line"/>
      <point x="246" y="285" type="line"/>
    </contour>
  </outline>
</glyph>
<glyph name="breve" format="2">
  <advance width="815"/>
  <unicode hex="02D8"/>
  <outline>
    <contour>
      <point x="733" y="1612" type="curve"/>
      <point x="539" y="1612" type="line"/>
      <point x="535" y="1507"/>
      <point x="487" y="1470"/>
      <point x="406" y="1470" type="curve" smooth="yes"/>
      <point x="322" y="1470"/>
      <point x="283" y="1513"/>
      <point x="276" y="1612" type="curve"/>
      <point x="82" y="1612" type="line"/>
      <point x="82" y="1368"/>
      <point x="217" y="1241"/>
      <point x="406" y="1241" type="curve" smooth="yes"/>
      <point x="588" y="1241"/>
      <point x="733" y="1384"/>
    </contour>
  </outline>
</glyph>
<glyph name="tilde" format="2">
  <advance width="874"/>
  <unicode hex="02DC"/>
  <outline>
    <contour>
      <point x="82" y="1237" type="curve"/>
      <point x="254" y="1237" type="line"/>
      <point x="260" y="1311"/>
      <point x="291" y="1335"/>
      <point x="313" y="1335" type="curve" smooth="yes"/>
      <point x="381" y="1335"/>
      <point x="500" y="1239"/>
      <point x="606" y="1239" type="curve" smooth="yes"/>
      <point x="711" y="1239"/>
      <point x="793" y="1358"/>
      <point x="793" y="1581" type="curve"/>
      <point x="621" y="1581" type="line"/>
      <point x="610" y="1518"/>
      <point x="596" y="1483"/>
      <point x="561" y="1483" type="curve" smooth="yes"/>
      <point x="469" y="1483"/>
      <point x="379" y="1579"/>
      <point x="264" y="1579" type="curve" smooth="yes"/>
      <point x="100" y="1579"/>
      <point x="82" y="1364"/>
    </contour>
  </outline>
</glyph>
<glyph name="uni02F3" format="2">
  <advance width="856"/>
  <unicode hex="02F3"/>
  <outline>
    <contour>
      <point x="428" y="-602" type="curve" smooth="yes"/>
      <point x="580" y="-602"/>
      <point x="682" y="-492"/>
      <point x="682" y="-348" type="curve" smooth="yes"/>
      <point x="682" y="-211"/>
      <point x="580" y="-96"/>
      <point x="428" y="-96" type="curve" smooth="yes"/>
      <point x="272" y="-96"/>
      <point x="174" y="-205"/>
      <point x="174" y="-350" type="curve" smooth="yes"/>
      <point x="174" y="-498"/>
      <point x="274" y="-602"/>
    </contour>
    <contour>
      <point x="428" y="-434" type="curve" smooth="yes"/>
      <point x="373" y="-434"/>
      <point x="344" y="-399"/>
      <point x="344" y="-350" type="curve" smooth="yes"/>
      <point x="344" y="-299"/>
      <point x="381" y="-266"/>
      <point x="428" y="-266" type="curve" smooth="yes"/>
      <point x="475" y="-266"/>
      <point x="512" y="-299"/>
      <point x="512" y="-350" type="curve" smooth="yes"/>
      <point x="512" y="-399"/>
      <point x="475" y="-434"/>
    </contour>
  </outline>
</glyph>
<glyph name="uni02FE" format="2">
  <advance width="758"/>
  <unicode hex="02FE"/>
  <outline>
    <contour>
      <point x="676" y="-422" type="line"/>
      <point x="676" y="-303" type="line"/>
      <point x="201" y="-303" type="line"/>
      <point x="201" y="-76" type="line"/>
      <point x="82" y="-76" type="line"/>
      <point x="82" y="-422" type="line"/>
    </contour>
  </outline>
</glyph>
<glyph name="dblverticallineabovecomb" format="2">
  <unicode hex="030E"/>
  <anchor x="-2" y="1133" name="_top"/>
  <anchor x="4" y="1589" name="top"/>
  <outline>
    <contour>
      <point x="-49" y="1589" type="line"/>
      <point x="-248" y="1589" type="line"/>
      <point x="-248" y="1223" type="line"/>
      <point x="-49" y="1223" type="line"/>
    </contour>
    <contour>
      <point x="246" y="1589" type="line"/>
      <point x="49" y="1589" type="line"/>
      <point x="49" y="1223" type="line"/>
      <point x="246" y="1223" type="line"/>
    </contour>
  </outline>
</glyph>
<glyph name="leftangleabovecomb" format="2">
  <unicode hex="031A"/>
  <anchor x="281" y="1331" name="_topright"/>
  <outline>
    <contour>
      <point x="-203" y="1925" type="line"/>
      <point x="-203" y="1806" type="line"/>
      <point x="150" y="1806" type="line"/>
      <point x="150" y="1442" type="line"/>
      <point x="268" y="1442" type="line"/>
      <point x="268" y="1925" type="line"/>
    </contour>
  </outline>
</glyph>
<glyph name="seagullbelowcomb" format="2">
  <unicode hex="033C"/>
  <anchor x="-2" y="0" name="_bottom"/>
  <anchor x="4" y="-360" name="bottom"/>
  <outline>
    <contour>
      <point x="-319" y="-360" type="curve"/>
      <point x="-219" y="-360" type="line"/>
      <point x="-219" y="-268"/>
      <point x="-186" y="-225"/>
      <point x="-131" y="-225" type="curve"/>
      <point x="-74" y="-225"/>
      <point x="-41" y="-268"/>
      <point x="-41" y="-360" type="curve"/>
      <point x="41" y="-360" type="line"/>
      <point x="41" y="-268"/>
      <point x="78" y="-225"/>
      <point x="131" y="-225" type="curve"/>
      <point x="190" y="-225"/>
      <point x="217" y="-268"/>
      <point x="217" y="-360" type="curve"/>
      <point x="317" y="-360" type="line"/>
      <point x="317" y="-205"/>
      <point x="240" y="-125"/>
      <point x="131" y="-125" type="curve"/>
      <point x="74" y="-125"/>
      <point x="29" y="-150"/>
      <point x="0" y="-199" type="curve"/>
      <point x="-29" y="-150"/>
      <point x="-72" y="-125"/>
      <point x="-131" y="-125" type="curve"/>
      <point x="-240" y="-125"/>
      <point x="-319" y="-203"/>
    </contour>
  </outline>
</glyph>
<glyph name="arrowleftrightbelowcomb" format="2">
  <unicode hex="034D"/>
  <anchor x="0" y="0" name="_bottom"/>
  <anchor x="4" y="-444" name="bottom"/>
  <outline>
    <contour>
      <point x="-295" y="-260" type="line"/>
      <point x="-84" y="-444" type="line"/>
      <point x="-84" y="-319" type="line"/>
      <point x="82" y="-319" type="line"/>
      <point x="82" y="-444" type="line"/>
      <point x="295" y="-260" type="line"/>
      <point x="82" y="-76" type="line"/>
      <point x="82" y="-201" type="line"/>
      <point x="-84" y="-201" type="line"/>
      <point x="-84" y="-76" type="line"/>
    </contour>
  </outline>
</glyph>
<glyph name="fermatacomb" format="2">
  <unicode hex="0352"/>
  <anchor x="0" y="1133" name="_top"/>
  <anchor x="4" y="1747" name="top"/>
  <outline>
    <contour>
      <point x="-346" y="1380" type="curve"/>
      <point x="-184" y="1380" type="line"/>
      <point x="-178" y="1487"/>
      <point x="-100" y="1573"/>
      <point x="2" y="1573" type="curve" smooth="yes"/>
      <point x="98" y="1573"/>
      <point x="184" y="1497"/>
      <point x="188" y="1380" type="curve"/>
      <point x="346" y="1380" type="line"/>
      <point x="338" y="1604"/>
      <point x="231" y="1747"/>
      <point x="2" y="1747" type="curve" smooth="yes"/>
      <point x="-215" y="1747"/>
      <point x="-334" y="1595"/>
    </contour>
    <contour>
      <point x="8" y="1241" type="curve"/>
      <point x="72" y="1241"/>
      <point x="111" y="1284"/>
      <point x="111" y="1370" type="curve"/>
      <point x="111" y="1450"/>
      <point x="72" y="1495"/>
      <point x="8" y="1495" type="curve"/>
      <point x="-57" y="1495"/>
      <point x="-98" y="1450"/>
      <point x="-98" y="1370" type="curve"/>
      <point x="-98" y="1286"/>
      <point x="-57" y="1241"/>
    </contour>
  </outline>
</glyph>
<glyph name="Archaicsampi" format="2">
  <advance width="1178"/>
  <unicode hex="0372"/>
  <anchor x="590" y="0" name="bottom"/>
  <anchor x="590" y="1462" name="top"/>
  <outline>
    <contour>
      <point x="762" y="0" type="line"/>
      <point x="762" y="1161" type="line"/>
      <point x="1143" y="1161" type="line"/>
      <point x="1143" y="1462" type="line"/>
      <point x="35" y="1462" type="line"/>
      <point x="35" y="1161" type="line"/>
      <point x="416" y="1161" type="line"/>
      <point x="416" y="0" type="line"/>
    </contour>
    <contour>
      <point x="35" y="1462" type="line"/>
      <point x="35" y="797" type="line"/>
      <point x="313" y="797" type="line"/>
      <point x="313" y="1462" type="line"/>
    </contour>
    <contour>
      <point x="864" y="1462" type="line"/>
      <point x="864" y="797" type="line"/>
      <point x="1143" y="797" type="line"/>
      <point x="1143" y="1462" type="line"/>
    </contour>
  </outline>
</glyph>
<glyph name="Xi" format="2">
  <advance width="942"/>
  <unicode hex="039E"/>
  <anchor x="471" y="0" name="bottom"/>
  <anchor x="471" y="1462" name="top"/>
  <outline>
    <contour>
      <point x="57" y="0" type="line"/>
      <point x="885" y="0" type="line"/>
      <point x="885" y="299" type="line"/>
      <point x="57" y="299" type="line"/>
    </contour>
    <contour>
      <point x="152" y="618" type="line"/>
      <point x="791" y="618" type="line"/>
      <point x="791" y="913" type="line"/>
      <point x="152" y="913" type="line"/>
    </contour>
    <contour>
      <point x="88" y="1167" type="line"/>
      <point x="854" y="1167" type="line"/>
      <point x="854" y="1462" type="line"/>
      <point x="88" y="1462" type="line"/>
    </contour>
  </outline>
</glyph>
<glyph name="Omega" format="2">
  <advance width="1276"/>
  <unicode hex="03A9"/>
  <anchor x="639" y="0" name="bottom"/>
  <anchor x="639" y="1462" name="top"/>
  <anchor x="41" y="1462" name="topleft"/>
  <outline>
    <contour>
      <point x="639" y="1186" type="curve" smooth="yes"/>
      <point x="776" y="1186"/>
      <point x="844" y="1065"/>
      <point x="844" y="815" type="curve" smooth="yes"/>
      <point x="844" y="580"/>
      <point x="805" y="428"/>
      <point x="698" y="342" type="curve"/>
      <point x="698" y="0" type="line"/>
      <point x="1237" y="0" type="line"/>
      <point x="1237" y="299" type="line"/>
      <point x="944" y="299" type="line"/>
      <point x="1106" y="406"/>
      <point x="1194" y="598"/>
      <point x="1194" y="866" type="curve" smooth="yes"/>
      <point x="1194" y="1274"/>
      <point x="965" y="1485"/>
      <point x="639" y="1485" type="curve" smooth="yes"/>
      <point x="287" y="1485"/>
      <point x="80" y="1266"/>
      <point x="80" y="864" type="curve" smooth="yes"/>
      <point x="80" y="598"/>
      <point x="172" y="395"/>
      <point x="324" y="299" type="curve"/>
      <point x="39" y="299" type="line"/>
      <point x="39" y="0" type="line"/>
      <point x="573" y="0" type="line"/>
      <point x="573" y="342" type="line"/>
      <point x="473" y="424"/>
      <point x="432" y="573"/>
      <point x="432" y="811" type="curve" smooth="yes"/>
      <point x="432" y="1061"/>
      <point x="496" y="1186"/>
    </contour>
  </outline>
</glyph>
<glyph name="beta" format="2">
  <advance width="1110"/>
  <unicode hex="03B2"/>
  <anchor x="709" y="0" name="bottom"/>
  <anchor x="555" y="1567" name="top"/>
  <anchor x="961" y="1567" name="topright"/>
  <outline>
    <contour>
      <point x="557" y="1567" type="curve" smooth="yes"/>
      <point x="272" y="1567"/>
      <point x="102" y="1395"/>
      <point x="102" y="1096" type="curve" smooth="yes"/>
      <point x="102" y="-492" type="line"/>
      <point x="434" y="-492" type="line"/>
      <point x="434" y="39" type="line"/>
      <point x="489" y="4"/>
      <point x="569" y="-20"/>
      <point x="672" y="-20" type="curve" smooth="yes"/>
      <point x="903" y="-20"/>
      <point x="1049" y="164"/>
      <point x="1049" y="444" type="curve" smooth="yes"/>
      <point x="1049" y="664"/>
      <point x="965" y="791"/>
      <point x="768" y="823" type="curve"/>
      <point x="768" y="831" type="line"/>
      <point x="905" y="860"/>
      <point x="981" y="975"/>
      <point x="981" y="1171" type="curve" smooth="yes"/>
      <point x="981" y="1419"/>
      <point x="823" y="1567"/>
    </contour>
    <contour>
      <point x="547" y="1290" type="curve" smooth="yes"/>
      <point x="608" y="1290"/>
      <point x="649" y="1229"/>
      <point x="649" y="1118" type="curve" smooth="yes"/>
      <point x="649" y="1008"/>
      <point x="616" y="938"/>
      <point x="553" y="938" type="curve" smooth="yes"/>
      <point x="526" y="938" type="line"/>
      <point x="526" y="659" type="line"/>
      <point x="567" y="659" type="line" smooth="yes"/>
      <point x="659" y="659"/>
      <point x="713" y="588"/>
      <point x="713" y="475" type="curve" smooth="yes"/>
      <point x="713" y="336"/>
      <point x="657" y="266"/>
      <point x="569" y="266" type="curve" smooth="yes"/>
      <point x="528" y="266"/>
      <point x="463" y="293"/>
      <point x="434" y="322" type="curve"/>
      <point x="434" y="1067" type="line" smooth="yes"/>
      <point x="434" y="1217"/>
      <point x="469" y="1290"/>
    </contour>
  </outline>
</glyph>
<glyph name="delta" format="2">
  <advance width="1038"/>
  <unicode hex="03B4"/>
  <anchor x="520" y="0" name="bottom"/>
  <anchor x="520" y="1575" name="top"/>
  <outline>
    <contour>
      <point x="571" y="1575" type="curve" smooth="yes"/>
      <point x="313" y="1575"/>
      <point x="166" y="1444"/>
      <point x="166" y="1219" type="curve" smooth="yes"/>
      <point x="166" y="1094"/>
      <point x="227" y="985"/>
      <point x="350" y="899" type="curve"/>
      <point x="158" y="819"/>
      <point x="61" y="666"/>
      <point x="61" y="438" type="curve" smooth="yes"/>
      <point x="61" y="145"/>
      <point x="213" y="-20"/>
      <point x="512" y="-20" type="curve" smooth="yes"/>
      <point x="805" y="-20"/>
      <point x="973" y="170"/>
      <point x="973" y="457" type="curve" smooth="yes"/>
      <point x="973" y="733"/>
      <point x="870" y="895"/>
      <point x="659" y="1047" type="curve" smooth="yes"/>
      <point x="504" y="1159"/>
      <point x="489" y="1182"/>
      <point x="489" y="1231" type="curve" smooth="yes"/>
      <point x="489" y="1276"/>
      <point x="522" y="1298"/>
      <point x="588" y="1298" type="curve" smooth="yes"/>
      <point x="659" y="1298"/>
      <point x="750" y="1264"/>
      <point x="860" y="1192" type="curve"/>
      <point x="973" y="1460" type="line"/>
      <point x="848" y="1536"/>
      <point x="715" y="1575"/>
    </contour>
    <contour>
      <point x="518" y="750" type="curve"/>
      <point x="598" y="688"/>
      <point x="637" y="594"/>
      <point x="637" y="465" type="curve" smooth="yes"/>
      <point x="637" y="330"/>
      <point x="590" y="256"/>
      <point x="514" y="256" type="curve" smooth="yes"/>
      <point x="442" y="256"/>
      <point x="397" y="322"/>
      <point x="397" y="461" type="curve" smooth="yes"/>
      <point x="397" y="598"/>
      <point x="451" y="717"/>
    </contour>
  </outline>
</glyph>
<glyph name="epsilon" format="2">
  <advance width="903"/>
  <unicode hex="03B5"/>
  <anchor x="453" y="0" name="bottom"/>
  <anchor x="516" y="1133" name="top"/>
  <outline>
    <contour>
      <point x="682" y="702" type="line"/>
      <point x="598" y="702" type="line"/>
      <point x="479" y="702"/>
      <point x="432" y="725"/>
      <point x="432" y="809" type="curve" smooth="yes"/>
      <point x="432" y="858"/>
      <point x="469" y="883"/>
      <point x="541" y="883" type="curve" smooth="yes"/>
      <point x="602" y="883"/>
      <point x="674" y="858"/>
      <point x="748" y="811" type="curve"/>
      <point x="854" y="1061" type="line"/>
      <point x="725" y="1130"/>
      <point x="616" y="1153"/>
      <point x="500" y="1153" type="curve" smooth="yes"/>
      <point x="266" y="1153"/>
      <point x="113" y="1032"/>
      <point x="113" y="846" type="curve" smooth="yes"/>
      <point x="113" y="725"/>
      <point x="174" y="631"/>
      <point x="283" y="598" type="curve"/>
      <point x="283" y="588" type="line"/>
      <point x="145" y="565"/>
      <point x="61" y="459"/>
      <point x="61" y="322" type="curve" smooth="yes"/>
      <point x="61" y="117"/>
      <point x="182" y="-20"/>
      <point x="489" y="-20" type="curve" smooth="yes"/>
      <point x="629" y="-20"/>
      <point x="731" y="-2"/>
      <point x="844" y="59" type="curve"/>
      <point x="844" y="344" type="line"/>
      <point x="750" y="287"/>
      <point x="643" y="256"/>
      <point x="549" y="256" type="curve" smooth="yes"/>
      <point x="449" y="256"/>
      <point x="397" y="289"/>
      <point x="397" y="352" type="curve" smooth="yes"/>
      <point x="397" y="420"/>
      <point x="440" y="461"/>
      <point x="580" y="461" type="curve" smooth="yes"/>
      <point x="682" y="461" type="line"/>
    </contour>
  </outline>
</glyph>
<glyph name="zeta" format="2">
  <advance width="881"/>
  <unicode hex="03B6"/>
  <anchor x="440" y="-365" name="bottom"/>
  <anchor x="440" y="1556" name="top"/>
  <outline>
    <contour>
      <point x="844" y="-18" type="curve" smooth="yes"/>
      <point x="844" y="150"/>
      <point x="768" y="244"/>
      <point x="614" y="285" type="curve" smooth="yes"/>
      <point x="440" y="334"/>
      <point x="401" y="375"/>
      <point x="401" y="489" type="curve" smooth="yes"/>
      <point x="401" y="766"/>
      <point x="530" y="1020"/>
      <point x="825" y="1337" type="curve"/>
      <point x="825" y="1556" type="line"/>
      <point x="106" y="1556" type="line"/>
      <point x="106" y="1280" type="line"/>
      <point x="350" y="1280" type="line" smooth="yes"/>
      <point x="399" y="1280"/>
      <point x="442" y="1286"/>
      <point x="483" y="1300" type="curve"/>
      <point x="195" y="1014"/>
      <point x="66" y="756"/>
      <point x="66" y="471" type="curve" smooth="yes"/>
      <point x="66" y="190"/>
      <point x="143" y="86"/>
      <point x="340" y="25" type="curve" smooth="yes"/>
      <point x="514" y="-29"/>
      <point x="518" y="-53"/>
      <point x="518" y="-102" type="curve" smooth="yes"/>
      <point x="518" y="-145"/>
      <point x="465" y="-274"/>
      <point x="403" y="-365" type="curve"/>
      <point x="737" y="-365" type="line"/>
      <point x="809" y="-242"/>
      <point x="844" y="-127"/>
    </contour>
  </outline>
</glyph>
<glyph name="theta" format="2">
  <advance width="1071"/>
  <unicode hex="03B8"/>
  <anchor x="537" y="0" name="bottom"/>
  <anchor x="537" y="1579" name="top"/>
  <anchor x="948" y="1579" name="topright"/>
  <outline>
    <contour>
      <point x="1006" y="780" type="curve" smooth="yes"/>
      <point x="1006" y="1323"/>
      <point x="848" y="1579"/>
      <point x="532" y="1579" type="curve" smooth="yes"/>
      <point x="217" y="1579"/>
      <point x="66" y="1323"/>
      <point x="66" y="780" type="curve" smooth="yes"/>
      <point x="66" y="231"/>
      <point x="217" y="-20"/>
      <point x="532" y="-20" type="curve" smooth="yes"/>
      <point x="850" y="-20"/>
      <point x="1006" y="240"/>
    </contour>
    <contour>
      <point x="532" y="244" type="curve" smooth="yes"/>
      <point x="444" y="244"/>
      <point x="406" y="379"/>
      <point x="401" y="645" type="curve"/>
      <point x="670" y="645" type="line"/>
      <point x="666" y="375"/>
      <point x="625" y="244"/>
    </contour>
    <contour>
      <point x="537" y="1315" type="curve" smooth="yes"/>
      <point x="623" y="1315"/>
      <point x="664" y="1188"/>
      <point x="672" y="909" type="curve"/>
      <point x="406" y="909" type="line"/>
      <point x="410" y="1188"/>
      <point x="449" y="1315"/>
    </contour>
  </outline>
</glyph>
<glyph name="upsilon" format="2">
  <advance width="1094"/>
  <unicode hex="03C5"/>
  <anchor x="547" y="0" name="bottom"/>
  <anchor x="535" y="1133" name="top"/>
  <outline>
    <contour>
      <point x="535" y="-16" type="curve" smooth="yes"/>
      <point x="838" y="-16"/>
      <point x="1004" y="190"/>
      <point x="1004" y="610" type="curve" smooth="yes"/>
      <point x="1004" y="784"/>
      <point x="989" y="918"/>
      <point x="942" y="1133" type="curve"/>
      <point x="612" y="1133" type="line"/>
      <point x="651" y="938"/>
      <point x="672" y="764"/>
      <point x="672" y="608" type="curve" smooth="yes"/>
      <point x="672" y="365"/>
      <point x="635" y="274"/>
      <point x="545" y="274" type="curve" smooth="yes"/>
      <point x="465" y="274"/>
      <point x="432" y="330"/>
      <point x="432" y="481" type="curve" smooth="yes"/>
      <point x="432" y="1133" type="line"/>
      <point x="100" y="1133" type="line"/>
      <point x="100" y="518" type="line" smooth="yes"/>
      <point x="100" y="152"/>
      <point x="231" y="-16"/>
    </contour>
  </outline>
</glyph>
<glyph name="psi" format="2">
  <advance width="1516"/>
  <unicode hex="03C8"/>
  <anchor x="758" y="-492" name="bottom"/>
  <anchor x="758" y="1554" name="top"/>
  <outline>
    <contour>
      <point x="918" y="1554" type="line"/>
      <point x="594" y="1554" type="line"/>
      <point x="594" y="274" type="line"/>
      <point x="469" y="287"/>
      <point x="432" y="360"/>
      <point x="432" y="530" type="curve" smooth="yes"/>
      <point x="432" y="1133" type="line"/>
      <point x="100" y="1133" type="line"/>
      <point x="100" y="516" type="line" smooth="yes"/>
      <point x="100" y="141"/>
      <point x="268" y="-4"/>
      <point x="594" y="-16" type="curve"/>
      <point x="594" y="-492" type="line"/>
      <point x="918" y="-492" type="line"/>
      <point x="918" y="-16" type="line"/>
      <point x="1253" y="4"/>
      <point x="1425" y="209"/>
      <point x="1425" y="573" type="curve" smooth="yes"/>
      <point x="1425" y="748"/>
      <point x="1407" y="901"/>
      <point x="1348" y="1133" type="curve"/>
      <point x="1024" y="1133" type="line"/>
      <point x="1071" y="938"/>
      <point x="1094" y="754"/>
      <point x="1094" y="580" type="curve" smooth="yes"/>
      <point x="1094" y="367"/>
      <point x="1053" y="293"/>
      <point x="918" y="274" type="curve"/>
    </contour>
  </outline>
</glyph>
<glyph name="uni03D2" format="2">
  <advance width="1085"/>
  <unicode hex="03D2"/>
  <anchor x="543" y="1462" name="top"/>
  <outline>
    <contour>
      <point x="539" y="952" type="curve"/>
      <point x="373" y="1462" type="line"/>
      <point x="0" y="1462" type="line"/>
      <point x="365" y="549" type="line"/>
      <point x="365" y="0" type="line"/>
      <point x="713" y="0" type="line"/>
      <point x="713" y="563" type="line"/>
      <point x="756" y="707"/>
      <point x="813" y="860"/>
      <point x="866" y="975" type="curve" smooth="yes"/>
      <point x="932" y="1116"/>
      <point x="975" y="1176"/>
      <point x="1026" y="1176" type="curve" smooth="yes"/>
      <point x="1044" y="1176"/>
      <point x="1065" y="1169"/>
      <point x="1085" y="1161" type="curve"/>
      <point x="1085" y="1440" type="line"/>
      <point x="1040" y="1462"/>
      <point x="985" y="1475"/>
      <point x="920" y="1475" type="curve" smooth="yes"/>
      <point x="768" y="1475"/>
      <point x="709" y="1401"/>
      <point x="647" y="1251" type="curve" smooth="yes"/>
      <point x="594" y="1118"/>
      <point x="563" y="1034"/>
    </contour>
  </outline>
</glyph>
<glyph name="uni03D9" format="2">
  <advance width="1057"/>
  <unicode hex="03D9"/>
  <anchor x="528" y="-492" name="bottom"/>
  <anchor x="528" y="1133" name="top"/>
  <outline>
    <contour>
      <point x="530" y="1153" type="curve" smooth="yes"/>
      <point x="199" y="1153"/>
      <point x="66" y="895"/>
      <point x="66" y="569" type="curve" smooth="yes"/>
      <point x="66" y="319"/>
      <point x="164" y="74"/>
      <point x="385" y="0" type="curve"/>
      <point x="385" y="-492" type="line"/>
      <point x="672" y="-492" type="line"/>
      <point x="672" y="0" type="line"/>
      <point x="907" y="72"/>
      <point x="989" y="324"/>
      <point x="989" y="569" type="curve"/>
      <point x="989" y="942"/>
      <point x="805" y="1153"/>
    </contour>
    <contour>
      <point x="528" y="877" type="curve" smooth="yes"/>
      <point x="621" y="877"/>
      <point x="653" y="776"/>
      <point x="653" y="569" type="curve" smooth="yes"/>
      <point x="653" y="360"/>
      <point x="621" y="256"/>
      <point x="528" y="256" type="curve" smooth="yes"/>
      <point x="440" y="256"/>
      <point x="401" y="362"/>
      <point x="401" y="565" type="curve" smooth="yes"/>
      <point x="401" y="778"/>
      <point x="440" y="877"/>
    </contour>
  </outline>
</glyph>
<glyph name="uni03DC" format="2">
  <advance width="909"/>
  <unicode hex="03DC"/>
  <anchor x="455" y="0" name="bottom"/>
  <anchor x="455" y="1462" name="top"/>
  <outline>
    <contour>
      <point x="121" y="0" type="line"/>
      <point x="469" y="0" type="line"/>
      <point x="469" y="559" type="line"/>
      <point x="600" y="559" type="line"/>
      <point x="600" y="344" type="line"/>
      <point x="838" y="344" type="line"/>
      <point x="838" y="854" type="line"/>
      <point x="469" y="854" type="line"/>
      <point x="469" y="1167" type="line"/>
      <point x="838" y="1167" type="line"/>
      <point x="838" y="1462" type="line"/>
      <point x="121" y="1462" type="line"/>
    </contour>
  </outline>
</glyph>
<glyph name="afii10051" format="2">
  <advance width="1282"/>
  <unicode hex="0402"/>
  <anchor x="641" y="0" name="bottom"/>
  <anchor x="641" y="1462" name="top"/>
  <outline>
    <contour>
      <point x="858" y="-20" type="curve" smooth="yes"/>
      <point x="1083" y="-20"/>
      <point x="1194" y="131"/>
      <point x="1196" y="412" type="curve" smooth="yes"/>
      <point x="1196" y="545" type="line" smooth="yes"/>
      <point x="1196" y="801"/>
      <point x="1061" y="956"/>
      <point x="811" y="956" type="curve" smooth="yes"/>
      <point x="639" y="956" type="line"/>
      <point x="639" y="1161" type="line"/>
      <point x="893" y="1161" type="line"/>
      <point x="893" y="1462" type="line"/>
      <point x="35" y="1462" type="line"/>
      <point x="35" y="1161" type="line"/>
      <point x="291" y="1161" type="line"/>
      <point x="291" y="0" type="line"/>
      <point x="639" y="0" type="line"/>
      <point x="639" y="655" type="line"/>
      <point x="758" y="655" type="line" smooth="yes"/>
      <point x="819" y="655"/>
      <point x="850" y="621"/>
      <point x="850" y="547" type="curve" smooth="yes"/>
      <point x="850" y="379" type="line"/>
      <point x="848" y="301"/>
      <point x="829" y="274"/>
      <point x="780" y="274" type="curve" smooth="yes"/>
      <point x="760" y="274"/>
      <point x="739" y="283"/>
      <point x="725" y="291" type="curve"/>
      <point x="725" y="0" type="line"/>
      <point x="766" y="-12"/>
      <point x="811" y="-20"/>
    </contour>
  </outline>
</glyph>
<glyph name="afii10048" format="2">
  <advance width="1749"/>
  <unicode hex="042E"/>
  <anchor x="874" y="0" name="bottom"/>
  <anchor x="874" y="1462" name="top"/>
  <outline>
    <contour>
      <point x="1667" y="733" type="curve" smooth="yes"/>
      <point x="1667" y="1227"/>
      <point x="1487" y="1485"/>
      <point x="1137" y="1485" type="curve" smooth="yes"/>
      <point x="836" y="1485"/>
      <point x="651" y="1284"/>
      <point x="612" y="907" type="curve"/>
      <point x="469" y="907" type="line"/>
      <point x="469" y="1462" type="line"/>
      <point x="121" y="1462" type="line"/>
      <point x="121" y="0" type="line"/>
      <point x="469" y="0" type="line"/>
      <point x="469" y="608" type="line"/>
      <point x="608" y="608" type="line"/>
      <point x="637" y="197"/>
      <point x="827" y="-20"/>
      <point x="1137" y="-20" type="curve" smooth="yes"/>
      <point x="1485" y="-20"/>
      <point x="1667" y="242"/>
    </contour>
    <contour>
      <point x="954" y="733" type="curve" smooth="yes"/>
      <point x="954" y="1034"/>
      <point x="1014" y="1186"/>
      <point x="1130" y="1186" type="curve" smooth="yes"/>
      <point x="1247" y="1186"/>
      <point x="1307" y="1042"/>
      <point x="1307" y="733" type="curve" smooth="yes"/>
      <point x="1307" y="426"/>
      <point x="1249" y="285"/>
      <point x="1130" y="285" type="curve" smooth="yes"/>
      <point x="1014" y="285"/>
      <point x="954" y="434"/>
    </contour>
  </outline>
</glyph>
<glyph name="afii10067" format="2">
  <advance width="1061"/>
  <unicode hex="0432"/>
  <anchor x="530" y="0" name="bottom"/>
  <anchor x="530" y="1133" name="top"/>
  <outline>
    <contour>
      <point x="973" y="840" type="curve" smooth="yes"/>
      <point x="973" y="1038"/>
      <point x="844" y="1133"/>
      <point x="588" y="1133" type="curve" smooth="yes"/>
      <point x="102" y="1133" type="line"/>
      <point x="102" y="0" type="line"/>
      <point x="586" y="0" type="line" smooth="yes"/>
      <point x="860" y="0"/>
      <point x="997" y="109"/>
      <point x="997" y="324" type="curve" smooth="yes"/>
      <point x="997" y="467"/>
      <point x="911" y="567"/>
      <point x="784" y="586" type="curve"/>
      <point x="784" y="594" type="line"/>
      <point x="901" y="616"/>
      <point x="973" y="709"/>
    </contour>
    <contour>
      <point x="662" y="362" type="curve" smooth="yes"/>
      <point x="662" y="285"/>
      <point x="625" y="246"/>
      <point x="553" y="246" type="curve" smooth="yes"/>
      <point x="434" y="246" type="line"/>
      <point x="434" y="467" type="line"/>
      <point x="553" y="467" type="line" smooth="yes"/>
      <point x="625" y="467"/>
      <point x="662" y="434"/>
    </contour>
    <contour>
      <point x="641" y="788" type="curve" smooth="yes"/>
      <point x="641" y="739"/>
      <point x="610" y="702"/>
      <point x="547" y="702" type="curve" smooth="yes"/>
      <point x="434" y="702" type="line"/>
      <point x="434" y="887" type="line"/>
      <point x="547" y="887" type="line" smooth="yes"/>
      <point x="610" y="887"/>
      <point x="641" y="854"/>
    </contour>
  </outline>
</glyph>
<glyph name="afii10107" format="2">
  <advance width="1516"/>
  <unicode hex="045A"/>
  <anchor x="758" y="0" name="bottom"/>
  <anchor x="758" y="1133" name="top"/>
  <outline>
    <contour>
      <point x="977" y="1133" type="line"/>
      <point x="651" y="1133" type="line"/>
      <point x="651" y="725" type="line"/>
      <point x="434" y="725" type="line"/>
      <point x="434" y="1133" type="line"/>
      <point x="102" y="1133" type="line"/>
      <point x="102" y="0" type="line"/>
      <point x="434" y="0" type="line"/>
      <point x="434" y="449" type="line"/>
      <point x="651" y="449" type="line"/>
      <point x="651" y="0" type="line"/>
      <point x="1055" y="0" type="line" smooth="yes"/>
      <point x="1317" y="0"/>
      <point x="1468" y="115"/>
      <point x="1468" y="375" type="curve" smooth="yes"/>
      <point x="1468" y="623"/>
      <point x="1319" y="725"/>
      <point x="1018" y="725" type="curve" smooth="yes"/>
      <point x="977" y="725" type="line"/>
    </contour>
    <contour>
      <point x="1026" y="479" type="line" smooth="yes"/>
      <point x="1106" y="479"/>
      <point x="1137" y="436"/>
      <point x="1137" y="358" type="curve" smooth="yes"/>
      <point x="1137" y="287"/>
      <point x="1098" y="246"/>
      <point x="1030" y="246" type="curve" smooth="yes"/>
      <point x="977" y="246" type="line"/>
      <point x="977" y="479" type="line"/>
    </contour>
  </outline>
</glyph>
<glyph name="uni047C" format="2">
  <advance width="1784"/>
  <unicode hex="047C"/>
  <outline>
    <contour>
      <point x="573" y="1935" type="line"/>
      <point x="772" y="1935" type="line"/>
      <point x="772" y="2001"/>
      <point x="795" y="2042"/>
      <point x="836" y="2042" type="curve" smooth="yes"/>
      <point x="870" y="2042"/>
      <point x="1061" y="1935"/>
      <point x="1212" y="1935" type="curve" smooth="yes"/>
      <point x="1225" y="1935" type="line"/>
      <point x="1225" y="2163" type="line"/>
      <point x="1204" y="2163" type="line"/>
      <point x="1042" y="2163"/>
      <point x="938" y="2286"/>
      <point x="801" y="2286" type="curve" smooth="yes"/>
      <point x="659" y="2286"/>
      <point x="573" y="2212"/>
      <point x="573" y="1997" type="curve" smooth="yes"/>
    </contour>
    <contour>
      <point x="782" y="1493" type="line"/>
      <point x="987" y="1499"/>
      <point x="1065" y="1583"/>
      <point x="1065" y="1722" type="curve" smooth="yes"/>
      <point x="1065" y="1839"/>
      <point x="1006" y="1909"/>
      <point x="905" y="1909" type="curve" smooth="yes"/>
      <point x="817" y="1909"/>
      <point x="764" y="1862"/>
      <point x="764" y="1788" type="curve" smooth="yes"/>
      <point x="764" y="1681"/>
      <point x="889" y="1729"/>
      <point x="889" y="1653" type="curve" smooth="yes"/>
      <point x="889" y="1626"/>
      <point x="866" y="1604"/>
      <point x="782" y="1604" type="curve"/>
    </contour>
    <component base="uniA64C"/>
  </outline>
</glyph>
<glyph name="uni048F" format="2">
  <advance width="1147"/>
  <unicode hex="048F"/>
  <anchor x="573" y="-492" name="bottom"/>
  <anchor x="573" y="1133" name="top"/>
  <outline>
    <contour>
      <point x="639" y="-14" type="curve" smooth="yes"/>
      <point x="645" y="-14"/>
      <point x="651" y="-14"/>
      <point x="655" y="-14" type="curve"/>
      <point x="717" y="-199" type="line"/>
      <point x="887" y="-141" type="line"/>
      <point x="838" y="4" type="line"/>
      <point x="1006" y="96"/>
      <point x="1079" y="285"/>
      <point x="1079" y="563" type="curve" smooth="yes"/>
      <point x="1079" y="932"/>
      <point x="938" y="1153"/>
      <point x="700" y="1153" type="curve" smooth="yes"/>
      <point x="590" y="1153"/>
      <point x="506" y="1114"/>
      <point x="434" y="987" type="curve"/>
      <point x="418" y="987" type="line"/>
      <point x="369" y="1133" type="line"/>
      <point x="102" y="1133" type="line"/>
      <point x="102" y="-492" type="line"/>
      <point x="434" y="-492" type="line"/>
      <point x="434" y="-72" type="line" smooth="yes"/>
      <point x="434" y="-29"/>
      <point x="430" y="43"/>
      <point x="424" y="145" type="curve"/>
      <point x="434" y="145" type="line"/>
      <point x="479" y="55"/>
      <point x="557" y="-14"/>
    </contour>
    <contour>
      <point x="598" y="877" type="curve" smooth="yes"/>
      <point x="690" y="877"/>
      <point x="743" y="774"/>
      <point x="743" y="559" type="curve" smooth="yes"/>
      <point x="743" y="496"/>
      <point x="735" y="426"/>
      <point x="721" y="354" type="curve"/>
      <point x="645" y="575" type="line"/>
      <point x="475" y="518" type="line"/>
      <point x="559" y="266" type="line"/>
      <point x="551" y="268"/>
      <point x="543" y="270"/>
      <point x="537" y="272" type="curve" smooth="yes"/>
      <point x="467" y="299"/>
      <point x="434" y="379"/>
      <point x="434" y="524" type="curve" smooth="yes"/>
      <point x="434" y="590" type="line" smooth="yes"/>
      <point x="434" y="795"/>
      <point x="483" y="877"/>
    </contour>
  </outline>
</glyph>
<glyph name="afii10050" format="2">
  <advance width="950"/>
  <unicode hex="0490"/>
  <anchor x="475" y="0" name="bottom"/>
  <anchor x="475" y="1776" name="top"/>
  <outline>
    <contour>
      <point x="922" y="1776" type="line"/>
      <point x="584" y="1776" type="line"/>
      <point x="584" y="1462" type="line"/>
      <point x="121" y="1462" type="line"/>
      <point x="121" y="0" type="line"/>
      <point x="469" y="0" type="line"/>
      <point x="469" y="1161" type="line"/>
      <point x="922" y="1161" type="line"/>
    </contour>
  </outline>
</glyph>
<glyph name="uni04A3" format="2">
  <advance width="1151"/>
  <unicode hex="04A3"/>
  <anchor x="575" y="-416" name="bottom"/>
  <anchor x="575" y="1133" name="top"/>
  <outline>
    <contour>
      <point x="803" y="-416" type="line"/>
      <point x="1124" y="-416" type="line"/>
      <point x="1124" y="276" type="line"/>
      <point x="983" y="276" type="line"/>
      <point x="983" y="1133" type="line"/>
      <point x="651" y="1133" type="line"/>
      <point x="651" y="719" type="line"/>
      <point x="434" y="719" type="line"/>
      <point x="434" y="1133" type="line"/>
      <point x="102" y="1133" type="line"/>
      <point x="102" y="0" type="line"/>
      <point x="434" y="0" type="line"/>
      <point x="434" y="440" type="line"/>
      <point x="651" y="440" type="line"/>
      <point x="651" y="0" type="line"/>
      <point x="803" y="0" type="line"/>
    </contour>
  </outline>
</glyph>
<glyph name="uni04CA" format="2">
  <advance width="1194"/>
  <unicode hex="04CA"/>
  <anchor x="598" y="-416" name="bottom"/>
  <anchor x="598" y="1133" name="top"/>
  <outline>
    <contour>
      <point x="102" y="0" type="line"/>
      <point x="434" y="0" type="line"/>
      <point x="434" y="440" type="line"/>
      <point x="651" y="440" type="line"/>
      <point x="651" y="0" type="line"/>
      <point x="858" y="0" type="line"/>
      <point x="748" y="-416" type="line"/>
      <point x="1063" y="-416" type="line"/>
      <point x="1182" y="272" type="line"/>
      <point x="983" y="272" type="line"/>
      <point x="983" y="1133" type="line"/>
      <point x="651" y="1133" type="line"/>
      <point x="651" y="719" type="line"/>
      <point x="434" y="719" type="line"/>
      <point x="434" y="1133" type="line"/>
      <point x="102" y="1133" type="line"/>
    </contour>
  </outline>
</glyph>
<glyph name="uni0516" format="2">
  <advance width="1550"/>
  <unicode hex="0516"/>
  <anchor x="778" y="0" name="bottom"/>
  <anchor x="778" y="1462" name="top"/>
  <outline>
    <contour>
      <point x="121" y="0" type="line"/>
      <point x="469" y="0" type="line"/>
      <point x="469" y="485" type="line"/>
      <point x="537" y="485" type="line" smooth="yes"/>
      <point x="702" y="485"/>
      <point x="819" y="537"/>
      <point x="891" y="641" type="curve"/>
      <point x="1163" y="0" type="line"/>
      <point x="1548" y="0" type="line"/>
      <point x="1217" y="752" type="line"/>
      <point x="1554" y="1462" type="line"/>
      <point x="1186" y="1462" type="line"/>
      <point x="993" y="1024" type="line"/>
      <point x="993" y="1274"/>
      <point x="834" y="1462"/>
      <point x="555" y="1462" type="curve" smooth="yes"/>
      <point x="121" y="1462" type="line"/>
    </contour>
    <contour>
      <point x="469" y="780" type="line"/>
      <point x="469" y="1167" type="line"/>
      <point x="522" y="1167" type="line" smooth="yes"/>
      <point x="614" y="1167"/>
      <point x="659" y="1110"/>
      <point x="659" y="995" type="curve" smooth="yes"/>
      <point x="659" y="840"/>
      <point x="596" y="780"/>
      <point x="500" y="780" type="curve" smooth="yes"/>
    </contour>
  </outline>
</glyph>
<glyph name="uni052F" format="2">
  <advance width="1251"/>
  <unicode hex="052F"/>
  <anchor x="627" y="-410" name="bottom"/>
  <anchor x="627" y="1133" name="top"/>
  <outline>
    <contour>
      <point x="795" y="0" type="line"/>
      <point x="936" y="0" type="line"/>
      <point x="936" y="-410" type="line"/>
      <point x="1227" y="-410" type="line"/>
      <point x="1227" y="248" type="line"/>
      <point x="993" y="248" type="line"/>
    </contour>
    <component base="afii10077"/>
  </outline>
</glyph>
<glyph name="uni1ABA" format="2">
  <unicode hex="1ABA"/>
  <anchor x="6" y="0" name="_bottom"/>
  <anchor x="10" y="-492" name="bottom"/>
  <outline>
    <contour>
      <point x="4" y="82" type="line"/>
      <point x="-174" y="-362" type="line"/>
      <point x="47" y="-362" type="line"/>
      <point x="225" y="82" type="line"/>
    </contour>
    <contour>
      <point x="-213" y="-342" type="curve" smooth="yes"/>
      <point x="-213" y="-442"/>
      <point x="-160" y="-492"/>
      <point x="-53" y="-492" type="curve" smooth="yes"/>
      <point x="55" y="-492"/>
      <point x="106" y="-442"/>
      <point x="106" y="-342" type="curve" smooth="yes"/>
      <point x="106" y="-242"/>
      <point x="59" y="-188"/>
      <point x="-53" y="-188" type="curve" smooth="yes"/>
      <point x="-166" y="-188"/>
      <point x="-213" y="-240"/>
    </contour>
  </outline>
</glyph>
<glyph name="uni1C81" format="2">
  <advance width="1202"/>
  <unicode hex="1C81"/>
  <anchor x="602" y="-492" name="bottom"/>
  <anchor x="602" y="1133" name="top"/>
  <outline>
    <contour>
      <point x="1049" y="1133" type="line"/>
      <point x="297" y="1133" type="line"/>
      <point x="274" y="836"/>
      <point x="209" y="553"/>
      <point x="123" y="358" type="curve"/>
      <point x="25" y="358" type="line"/>
      <point x="25" y="-492" type="line"/>
      <point x="346" y="-492" type="line"/>
      <point x="346" y="82" type="line"/>
      <point x="854" y="82" type="line"/>
      <point x="854" y="-492" type="line"/>
      <point x="1178" y="-492" type="line"/>
      <point x="1178" y="358" type="line"/>
      <point x="1049" y="358" type="line"/>
    </contour>
    <contour>
      <point x="717" y="856" type="line"/>
      <point x="717" y="358" type="line"/>
      <point x="469" y="358" type="line"/>
      <point x="532" y="563"/>
      <point x="557" y="678"/>
      <point x="575" y="856" type="curve"/>
    </contour>
  </outline>
</glyph>
<glyph name="uni1D0C" format="2">
  <advance width="860"/>
  <unicode hex="1D0C"/>
  <anchor x="430" y="0" name="bottom"/>
  <anchor x="430" y="1133" name="top"/>
  <outline>
    <contour>
      <point x="143" y="0" type="line"/>
      <point x="809" y="0" type="line"/>
      <point x="809" y="276" type="line"/>
      <point x="475" y="276" type="line"/>
      <point x="475" y="555" type="line"/>
      <point x="737" y="748" type="line"/>
      <point x="594" y="932" type="line"/>
      <point x="475" y="844" type="line"/>
      <point x="475" y="1133" type="line"/>
      <point x="143" y="1133" type="line"/>
      <point x="143" y="621" type="line"/>
      <point x="-39" y="485" type="line"/>
      <point x="104" y="301" type="line"/>
      <point x="143" y="330" type="line"/>
    </contour>
  </outline>
</glyph>
<glyph name="uni1D23" format="2">
  <advance width="834"/>
  <unicode hex="1D23"/>
  <anchor x="418" y="0" name="bottom"/>
  <anchor x="418" y="1133" name="top"/>
  <outline>
    <contour>
      <point x="717" y="1133" type="line"/>
      <point x="76" y="1133" type="line"/>
      <point x="76" y="895" type="line"/>
      <point x="342" y="895" type="line"/>
      <point x="186" y="670" type="line"/>
      <point x="186" y="475" type="line"/>
      <point x="250" y="475" type="line" smooth="yes"/>
      <point x="403" y="475"/>
      <point x="436" y="426"/>
      <point x="436" y="354" type="curve" smooth="yes"/>
      <point x="436" y="279"/>
      <point x="408" y="221"/>
      <point x="305" y="221" type="curve" smooth="yes"/>
      <point x="246" y="221"/>
      <point x="139" y="246"/>
      <point x="49" y="295" type="curve"/>
      <point x="49" y="45" type="line"/>
      <point x="135" y="8"/>
      <point x="238" y="-16"/>
      <point x="348" y="-16" type="curve" smooth="yes"/>
      <point x="643" y="-16"/>
      <point x="772" y="135"/>
      <point x="772" y="346" type="curve" smooth="yes"/>
      <point x="772" y="535"/>
      <point x="678" y="657"/>
      <point x="494" y="670" type="curve"/>
      <point x="717" y="954" type="line"/>
    </contour>
  </outline>
</glyph>
<glyph name="uni1D26" format="2">
  <advance width="799"/>
  <unicode hex="1D26"/>
  <outline>
    <contour>
      <point x="768" y="1133" type="line"/>
      <point x="102" y="1133" type="line"/>
      <point x="102" y="0" type="line"/>
      <point x="434" y="0" type="line"/>
      <point x="434" y="856" type="line"/>
      <point x="768" y="856" type="line"/>
    </contour>
  </outline>
</glyph>
<glyph name="uni1D72" format="2">
  <advance width="924"/>
  <unicode hex="1D72"/>
  <outline>
    <contour>
      <point x="260" y="0" type="line"/>
      <point x="592" y="0" type="line"/>
      <point x="592" y="303" type="line"/>
      <point x="600" y="301"/>
      <point x="608" y="301"/>
      <point x="616" y="301" type="curve"/>
      <point x="745" y="301"/>
      <point x="846" y="420"/>
      <point x="846" y="623" type="curve"/>
      <point x="674" y="623" type="line"/>
      <point x="670" y="559"/>
      <point x="643" y="524"/>
      <point x="612" y="524" type="curve"/>
      <point x="606" y="524"/>
      <point x="598" y="524"/>
      <point x="592" y="524" type="curve"/>
      <point x="592" y="551" type="line" smooth="yes"/>
      <point x="592" y="727"/>
      <point x="637" y="797"/>
      <point x="778" y="797" type="curve" smooth="yes"/>
      <point x="821" y="797"/>
      <point x="854" y="793"/>
      <point x="881" y="784" type="curve"/>
      <point x="907" y="1141" type="line"/>
      <point x="866" y="1151"/>
      <point x="842" y="1153"/>
      <point x="815" y="1153" type="curve" smooth="yes"/>
      <point x="702" y="1153"/>
      <point x="616" y="1044"/>
      <point x="578" y="952" type="curve"/>
      <point x="561" y="952" type="line"/>
      <point x="514" y="1133" type="line"/>
      <point x="260" y="1133" type="line"/>
      <point x="260" y="618" type="line"/>
      <point x="252" y="621"/>
      <point x="242" y="621"/>
      <point x="233" y="621" type="curve"/>
      <point x="33" y="621"/>
      <point x="10" y="426"/>
      <point x="10" y="299" type="curve"/>
      <point x="182" y="299" type="line"/>
      <point x="182" y="373"/>
      <point x="217" y="397"/>
      <point x="242" y="397" type="curve"/>
      <point x="248" y="397"/>
      <point x="254" y="397"/>
      <point x="260" y="395" type="curve"/>
    </contour>
  </outline>
</glyph>
<glyph name="snakebelow" format="2">
  <unicode hex="1DC2"/>
  <anchor x="0" y="0" name="_bottom"/>
  <anchor x="4" y="-434" name="bottom"/>
  <outline>
    <contour>
      <point x="84" y="-434" type="curve"/>
      <point x="84" y="-383" type="line"/>
      <point x="37" y="-381"/>
      <point x="10" y="-375"/>
      <point x="10" y="-360" type="curve"/>
      <point x="10" y="-340"/>
      <point x="92" y="-358"/>
      <point x="92" y="-303" type="curve"/>
      <point x="92" y="-246"/>
      <point x="10" y="-260"/>
      <point x="10" y="-242" type="curve"/>
      <point x="10" y="-217"/>
      <point x="98" y="-223"/>
      <point x="98" y="-150" type="curve"/>
      <point x="98" y="-106"/>
      <point x="59" y="-80"/>
      <point x="2" y="-80" type="curve"/>
      <point x="-35" y="-80"/>
      <point x="-78" y="-88"/>
      <point x="-98" y="-98" type="curve"/>
      <point x="-90" y="-164" type="line"/>
      <point x="-66" y="-150"/>
      <point x="-43" y="-141"/>
      <point x="-20" y="-141" type="curve"/>
      <point x="2" y="-141"/>
      <point x="12" y="-150"/>
      <point x="12" y="-162" type="curve"/>
      <point x="12" y="-188"/>
      <point x="-78" y="-193"/>
      <point x="-78" y="-244" type="curve"/>
      <point x="-78" y="-297"/>
      <point x="8" y="-279"/>
      <point x="8" y="-303" type="curve"/>
      <point x="8" y="-322"/>
      <point x="-78" y="-309"/>
      <point x="-78" y="-371" type="curve"/>
      <point x="-78" y="-410"/>
      <point x="-16" y="-434"/>
    </contour>
  </outline>
</glyph>
<glyph name="doublecircumflexabove" format="2">
  <unicode hex="1DCD"/>
  <anchor x="0" y="1133" name="_top"/>
  <anchor x="4" y="1610" name="top"/>
  <outline>
    <contour>
      <point x="197" y="1610" type="curve"/>
      <point x="-197" y="1610" type="line"/>
      <point x="-330" y="1509"/>
      <point x="-573" y="1376"/>
      <point x="-799" y="1280" type="curve"/>
      <point x="-799" y="1247" type="line"/>
      <point x="-539" y="1247" type="line"/>
      <point x="-373" y="1292"/>
      <point x="-166" y="1348"/>
      <point x="0" y="1421" type="curve"/>
      <point x="164" y="1348"/>
      <point x="330" y="1300"/>
      <point x="539" y="1247" type="curve"/>
      <point x="799" y="1247" type="line"/>
      <point x="799" y="1282" type="line"/>
      <point x="582" y="1372"/>
      <point x="332" y="1509"/>
    </contour>
  </outline>
</glyph>
<glyph name="ll-middleWelsh" format="2">
  <advance width="1075"/>
  <unicode hex="1EFB"/>
  <anchor x="539" y="0" name="bottom"/>
  <anchor x="539" y="1556" name="top"/>
  <outline>
    <contour>
      <point x="8" y="1167" type="line"/>
      <point x="1067" y="1167" type="line"/>
      <point x="1067" y="1405" type="line"/>
      <point x="8" y="1405" type="line"/>
    </contour>
    <component base="l"/>
    <component base="l" xOffset="539"/>
  </outline>
</glyph>
<glyph name="v-middleWelsh" format="2">
  <advance width="1135"/>
  <unicode hex="1EFD"/>
  <anchor x="567" y="0" name="bottom"/>
  <anchor x="567" y="1618" name="top"/>
  <outline>
    <contour>
      <point x="705" y="1618" type="line"/>
      <point x="260" y="1409"/>
      <point x="66" y="1069"/>
      <point x="66" y="604" type="curve" smooth="yes"/>
      <point x="66" y="205"/>
      <point x="252" y="-20"/>
      <point x="573" y="-20" type="curve" smooth="yes"/>
      <point x="866" y="-20"/>
      <point x="1069" y="188"/>
      <point x="1069" y="510" type="curve" smooth="yes"/>
      <point x="1069" y="838"/>
      <point x="920" y="1032"/>
      <point x="659" y="1032" type="curve" smooth="yes"/>
      <point x="610" y="1032"/>
      <point x="563" y="1022"/>
      <point x="528" y="1010" type="curve"/>
      <point x="528" y="731" type="line"/>
      <point x="547" y="737"/>
      <point x="565" y="741"/>
      <point x="590" y="741" type="curve" smooth="yes"/>
      <point x="680" y="741"/>
      <point x="733" y="651"/>
      <point x="733" y="502" type="curve" smooth="yes"/>
      <point x="733" y="356"/>
      <point x="678" y="256"/>
      <point x="575" y="256" type="curve" smooth="yes"/>
      <point x="463" y="256"/>
      <point x="401" y="377"/>
      <point x="401" y="584" type="curve" smooth="yes"/>
      <point x="401" y="971"/>
      <point x="514" y="1206"/>
      <point x="848" y="1391" type="curve"/>
    </contour>
  </outline>
</glyph>
<glyph name="uni1FDE" format="2">
  <advance width="1110"/>
  <unicode hex="1FDE"/>
  <anchor x="526" y="1133" name="_top"/>
  <anchor x="569" y="1591" name="top"/>
  <outline>
    <contour>
      <point x="551" y="1245" type="line"/>
      <point x="700" y="1245" type="line"/>
      <point x="768" y="1331"/>
      <point x="842" y="1446"/>
      <point x="877" y="1536" type="curve"/>
      <point x="877" y="1569" type="line"/>
      <point x="618" y="1569" type="line"/>
      <point x="604" y="1468"/>
      <point x="575" y="1341"/>
      <point x="551" y="1270" type="curve"/>
    </contour>
    <contour>
      <point x="504" y="1225" type="curve"/>
      <point x="504" y="1309" type="line"/>
      <point x="451" y="1313"/>
      <point x="438" y="1333"/>
      <point x="438" y="1366" type="curve" smooth="yes"/>
      <point x="438" y="1415"/>
      <point x="520" y="1399"/>
      <point x="520" y="1489" type="curve" smooth="yes"/>
      <point x="520" y="1546"/>
      <point x="483" y="1591"/>
      <point x="399" y="1591" type="curve" smooth="yes"/>
      <point x="301" y="1591"/>
      <point x="254" y="1534"/>
      <point x="254" y="1430" type="curve" smooth="yes"/>
      <point x="254" y="1307"/>
      <point x="346" y="1225"/>
    </contour>
  </outline>
</glyph>
<glyph name="quoteleft" format="2">
  <advance width="559"/>
  <unicode hex="2018"/>
  <outline>
    <contour>
      <point x="88" y="879" type="line"/>
      <point x="412" y="879" type="line"/>
      <point x="424" y="1030"/>
      <point x="453" y="1292"/>
      <point x="487" y="1462" type="curve"/>
      <point x="213" y="1462" type="line"/>
      <point x="154" y="1313"/>
      <point x="109" y="1124"/>
      <point x="78" y="901" type="curve"/>
    </contour>
  </outline>
</glyph>
<glyph name="quotedblright" format="2">
  <advance width="1030"/>
  <unicode hex="201D"/>
  <outline>
    <contour>
      <point x="940" y="1462" type="line"/>
      <point x="618" y="1462" type="line"/>
      <point x="604" y="1278"/>
      <point x="578" y="1077"/>
      <point x="543" y="879" type="curve"/>
      <point x="817" y="879" type="line"/>
      <point x="877" y="1028"/>
      <point x="922" y="1214"/>
      <point x="952" y="1440" type="curve"/>
    </contour>
    <contour>
      <point x="471" y="1462" type="line"/>
      <point x="147" y="1462" type="line"/>
      <point x="141" y="1325"/>
      <point x="98" y="1022"/>
      <point x="74" y="879" type="curve"/>
      <point x="348" y="879" type="line"/>
      <point x="408" y="1028"/>
      <point x="451" y="1214"/>
      <point x="481" y="1440" type="curve"/>
    </contour>
  </outline>
</glyph>
<glyph name="daggerdbl" format="2">
  <advance width="1024"/>
  <unicode hex="2021"/>
  <outline>
    <contour>
      <point x="629" y="594" type="line"/>
      <point x="680" y="786" type="line"/>
      <point x="629" y="963" type="line"/>
      <point x="934" y="926" type="line"/>
      <point x="934" y="1212" type="line"/>
      <point x="629" y="1176" type="line"/>
      <point x="690" y="1556" type="line"/>
      <point x="362" y="1556" type="line"/>
      <point x="422" y="1176" type="line"/>
      <point x="90" y="1212" type="line"/>
      <point x="90" y="926" type="line"/>
      <point x="422" y="963" type="line"/>
      <point x="371" y="786" type="line"/>
      <point x="422" y="594" type="line"/>
      <point x="90" y="631" type="line"/>
      <point x="90" y="344" type="line"/>
      <point x="422" y="383" type="line"/>
      <point x="362" y="0" type="line"/>
      <point x="690" y="0" type="line"/>
      <point x="629" y="383" type="line"/>
      <point x="934" y="344" type="line"/>
      <point x="934" y="631" type="line"/>
    </contour>
  </outline>
</glyph>
<glyph name="bracketrightwithquill" format="2">
  <advance width="618"/>
  <unicode hex="2046"/>
  <outline>
    <contour>
      <point x="35" y="-344" type="line"/>
      <point x="535" y="-344" type="line"/>
      <point x="535" y="1503" type="line"/>
      <point x="35" y="1503" type="line"/>
      <point x="35" y="1249" type="line"/>
      <point x="217" y="1249" type="line"/>
      <point x="217" y="-90" type="line"/>
      <point x="35" y="-90" type="line"/>
    </contour>
    <contour>
      <point x="35" y="483" type="line"/>
      <point x="514" y="483" type="line"/>
      <point x="514" y="737" type="line"/>
      <point x="35" y="737" type="line"/>
    </contour>
  </outline>
</glyph>
<glyph name="swungdash" format="2">
  <advance width="2048"/>
  <unicode hex="2053"/>
  <outline>
    <contour>
      <point x="1532" y="664" type="curve" smooth="yes"/>
      <point x="1288" y="664"/>
      <point x="850" y="809"/>
      <point x="567" y="809" type="curve" smooth="yes"/>
      <point x="285" y="809"/>
      <point x="84" y="645"/>
      <point x="66" y="393" type="curve"/>
      <point x="274" y="393" type="line"/>
      <point x="297" y="471"/>
      <point x="385" y="520"/>
      <point x="516" y="520" type="curve" smooth="yes"/>
      <point x="754" y="520"/>
      <point x="1204" y="375"/>
      <point x="1481" y="375" type="curve" smooth="yes"/>
      <point x="1763" y="375"/>
      <point x="1964" y="539"/>
      <point x="1982" y="791" type="curve"/>
      <point x="1774" y="791" type="line"/>
      <point x="1751" y="713"/>
      <point x="1663" y="664"/>
    </contour>
  </outline>
</glyph>
<glyph name="zerosuperior" format="2">
  <advance width="713"/>
  <unicode hex="2070"/>
  <outline>
    <contour>
      <point x="348" y="829" type="curve" smooth="yes"/>
      <point x="567" y="829"/>
      <point x="678" y="991"/>
      <point x="678" y="1292" type="curve" smooth="yes"/>
      <point x="678" y="1585"/>
      <point x="561" y="1751"/>
      <point x="348" y="1751" type="curve" smooth="yes"/>
      <point x="141" y="1751"/>
      <point x="35" y="1599"/>
      <point x="35" y="1292" type="curve" smooth="yes"/>
      <point x="35" y="999"/>
      <point x="147" y="829"/>
    </contour>
    <contour>
      <point x="356" y="1034" type="curve" smooth="yes"/>
      <point x="297" y="1034"/>
      <point x="274" y="1110"/>
      <point x="274" y="1290" type="curve" smooth="yes"/>
      <point x="274" y="1468"/>
      <point x="297" y="1542"/>
      <point x="356" y="1542" type="curve" smooth="yes"/>
      <point x="414" y="1542"/>
      <point x="438" y="1464"/>
      <point x="438" y="1288" type="curve" smooth="yes"/>
      <point x="438" y="1110"/>
      <point x="414" y="1034"/>
    </contour>
  </outline>
</glyph>
<glyph name="foursuperior" format="2">
  <advance width="713"/>
  <unicode hex="2074"/>
  <outline>
    <contour>
      <point x="690" y="991" type="line"/>
      <point x="690" y="1182" type="line"/>
      <point x="582" y="1182" type="line"/>
      <point x="582" y="1729" type="line"/>
      <point x="317" y="1729" type="line"/>
      <point x="20" y="1169" type="line"/>
      <point x="20" y="991" type="line"/>
      <point x="346" y="991" type="line"/>
      <point x="346" y="852" type="line"/>
      <point x="582" y="852" type="line"/>
      <point x="582" y="991" type="line"/>
    </contour>
    <contour>
      <point x="346" y="1182" type="line"/>
      <point x="209" y="1182" type="line"/>
      <point x="299" y="1354" type="line" smooth="yes"/>
      <point x="311" y="1376"/>
      <point x="330" y="1419"/>
      <point x="352" y="1487" type="curve"/>
      <point x="348" y="1444"/>
      <point x="346" y="1399"/>
      <point x="346" y="1352" type="curve" smooth="yes"/>
    </contour>
  </outline>
</glyph>
<glyph name="uni20A5" format="2">
  <advance width="1616"/>
  <unicode hex="20A5"/>
  <outline>
    <contour>
      <point x="1229" y="1364" type="line"/>
      <point x="1020" y="1364" type="line"/>
      <point x="487" y="-225" type="line"/>
      <point x="698" y="-225" type="line"/>
    </contour>
    <component base="m"/>
  </outline>
</glyph>
<glyph name="uni20AF" format="2">
  <advance width="1774"/>
  <unicode hex="20AF"/>
  <outline>
    <contour>
      <point x="20" y="0" type="line"/>
      <point x="391" y="0" type="line" smooth="yes"/>
      <point x="766" y="0"/>
      <point x="1042" y="319"/>
      <point x="1042" y="842" type="curve" smooth="yes"/>
      <point x="1042" y="1229"/>
      <point x="856" y="1483"/>
      <point x="446" y="1483" type="curve"/>
      <point x="305" y="1483"/>
      <point x="127" y="1444"/>
      <point x="39" y="1389" type="curve"/>
      <point x="137" y="1135" type="line"/>
      <point x="217" y="1180"/>
      <point x="317" y="1206"/>
      <point x="430" y="1206" type="curve" smooth="yes"/>
      <point x="621" y="1206"/>
      <point x="707" y="1053"/>
      <point x="707" y="844" type="curve" smooth="yes"/>
      <point x="707" y="539"/>
      <point x="596" y="276"/>
      <point x="410" y="276" type="curve" smooth="yes"/>
      <point x="393" y="276" type="line"/>
      <point x="532" y="1087" type="line"/>
      <point x="201" y="1087" type="line"/>
    </contour>
    <contour>
      <point x="866" y="-492" type="line"/>
      <point x="1157" y="-492" type="line"/>
      <point x="1204" y="-201" type="line" smooth="yes"/>
      <point x="1225" y="-78"/>
      <point x="1239" y="16"/>
      <point x="1239" y="49" type="curve"/>
      <point x="1247" y="49" type="line"/>
      <point x="1274" y="12"/>
      <point x="1333" y="-20"/>
      <point x="1438" y="-20" type="curve" smooth="yes"/>
      <point x="1667" y="-20"/>
      <point x="1745" y="190"/>
      <point x="1745" y="371" type="curve" smooth="yes"/>
      <point x="1745" y="555"/>
      <point x="1636" y="709"/>
      <point x="1399" y="709" type="curve" smooth="yes"/>
      <point x="1145" y="709"/>
      <point x="1038" y="571"/>
      <point x="985" y="246" type="curve" smooth="yes"/>
    </contour>
    <contour>
      <point x="1386" y="184" type="curve"/>
      <point x="1343" y="184"/>
      <point x="1303" y="199"/>
      <point x="1282" y="252" type="curve"/>
      <point x="1284" y="305" type="line" smooth="yes"/>
      <point x="1300" y="446"/>
      <point x="1335" y="504"/>
      <point x="1395" y="504" type="curve"/>
      <point x="1444" y="504"/>
      <point x="1487" y="455"/>
      <point x="1487" y="365" type="curve" smooth="yes"/>
      <point x="1487" y="254"/>
      <point x="1436" y="184"/>
    </contour>
  </outline>
</glyph>
<glyph name="uni20B3" format="2">
  <advance width="1147"/>
  <unicode hex="20B3"/>
  <outline>
    <contour>
      <point x="797" y="1462" type="line"/>
      <point x="350" y="1462" type="line"/>
      <point x="209" y="858" type="line"/>
      <point x="0" y="858" type="line"/>
      <point x="0" y="700" type="line"/>
      <point x="174" y="700" type="line"/>
      <point x="139" y="559" type="line"/>
      <point x="0" y="559" type="line"/>
      <point x="0" y="401" type="line"/>
      <point x="104" y="401" type="line"/>
      <point x="10" y="0" type="line"/>
      <point x="369" y="0" type="line"/>
      <point x="446" y="401" type="line"/>
      <point x="698" y="401" type="line"/>
      <point x="776" y="0" type="line"/>
      <point x="1137" y="0" type="line"/>
      <point x="1042" y="401" type="line"/>
      <point x="1147" y="401" type="line"/>
      <point x="1147" y="559" type="line"/>
      <point x="1008" y="559" type="line"/>
      <point x="973" y="700" type="line"/>
      <point x="1147" y="700" type="line"/>
      <point x="1147" y="858" type="line"/>
      <point x="938" y="858" type="line"/>
    </contour>
    <contour>
      <point x="641" y="700" type="line"/>
      <point x="668" y="559" type="line"/>
      <point x="477" y="559" type="line"/>
      <point x="506" y="700" type="line"/>
    </contour>
    <contour>
      <point x="573" y="1122" type="curve"/>
      <point x="575" y="1067"/>
      <point x="588" y="979"/>
      <point x="610" y="858" type="curve"/>
      <point x="537" y="858" type="line"/>
      <point x="553" y="946"/>
      <point x="565" y="1034"/>
    </contour>
  </outline>
</glyph>
<glyph name="uni20B9" format="2">
  <advance width="1014"/>
  <unicode hex="20B9"/>
  <outline>
    <contour>
      <point x="383" y="0" type="line"/>
      <point x="756" y="0" type="line"/>
      <point x="451" y="602" type="line"/>
      <point x="637" y="664"/>
      <point x="700" y="782"/>
      <point x="725" y="911" type="curve"/>
      <point x="922" y="911" type="line"/>
      <point x="922" y="1122" type="line"/>
      <point x="725" y="1122" type="line"/>
      <point x="717" y="1169"/>
      <point x="698" y="1212"/>
      <point x="676" y="1251" type="curve"/>
      <point x="922" y="1251" type="line"/>
      <point x="922" y="1462" type="line"/>
      <point x="100" y="1462" type="line"/>
      <point x="100" y="1251" type="line"/>
      <point x="211" y="1251" type="line" smooth="yes"/>
      <point x="311" y="1251"/>
      <point x="360" y="1206"/>
      <point x="379" y="1122" type="curve"/>
      <point x="100" y="1122" type="line"/>
      <point x="100" y="911" type="line"/>
      <point x="375" y="911" type="line"/>
      <point x="354" y="825"/>
      <point x="311" y="782"/>
      <point x="229" y="782" type="curve" smooth="yes"/>
      <point x="100" y="782" type="line"/>
      <point x="100" y="600" type="line"/>
    </contour>
  </outline>
</glyph>
<glyph name="cadauna" format="2">
  <advance width="1628"/>
  <unicode hex="2106"/>
  <anchor x="330" y="633" name="_top"/>
  <anchor x="1237" y="719" name="top"/>
  <outline>
    <contour>
      <point x="367" y="745" type="curve" smooth="yes"/>
      <point x="451" y="745"/>
      <point x="512" y="768"/>
      <point x="563" y="805" type="curve"/>
      <point x="563" y="1010" type="line"/>
      <point x="510" y="971"/>
      <point x="451" y="950"/>
      <point x="389" y="950" type="curve" smooth="yes"/>
      <point x="336" y="950"/>
      <point x="297" y="1001"/>
      <point x="297" y="1120" type="curve" smooth="yes"/>
      <point x="297" y="1237"/>
      <point x="336" y="1298"/>
      <point x="387" y="1298" type="curve" smooth="yes"/>
      <point x="434" y="1298"/>
      <point x="471" y="1282"/>
      <point x="522" y="1257" type="curve"/>
      <point x="584" y="1442" type="line"/>
      <point x="526" y="1475"/>
      <point x="459" y="1493"/>
      <point x="383" y="1493" type="curve" smooth="yes"/>
      <point x="207" y="1493"/>
      <point x="74" y="1376"/>
      <point x="74" y="1118" type="curve" smooth="yes"/>
      <point x="74" y="862"/>
      <point x="190" y="745"/>
    </contour>
    <contour>
      <point x="1214" y="1462" type="line"/>
      <point x="954" y="1462" type="line"/>
      <point x="248" y="0" type="line"/>
      <point x="508" y="0" type="line"/>
    </contour>
    <contour>
      <point x="1532" y="719" type="line"/>
      <point x="1296" y="719" type="line"/>
      <point x="1296" y="387" type="line" smooth="yes"/>
      <point x="1296" y="264"/>
      <point x="1282" y="188"/>
      <point x="1231" y="188" type="curve" smooth="yes"/>
      <point x="1178" y="188"/>
      <point x="1167" y="231"/>
      <point x="1167" y="303" type="curve" smooth="yes"/>
      <point x="1167" y="719" type="line"/>
      <point x="934" y="719" type="line"/>
      <point x="934" y="244" type="line" smooth="yes"/>
      <point x="934" y="70"/>
      <point x="1010" y="-14"/>
      <point x="1137" y="-14" type="curve" smooth="yes"/>
      <point x="1208" y="-14"/>
      <point x="1264" y="18"/>
      <point x="1305" y="90" type="curve"/>
      <point x="1315" y="90" type="line"/>
      <point x="1343" y="0" type="line"/>
      <point x="1532" y="0" type="line"/>
    </contour>
  </outline>
</glyph>
<glyph name="servicemark" format="2">
  <advance width="1450"/>
  <unicode hex="2120"/>
  <outline>
    <contour>
      <point x="612" y="741" type="line"/>
      <point x="807" y="741" type="line"/>
      <point x="807" y="1071" type="line" smooth="yes"/>
      <point x="807" y="1108"/>
      <point x="805" y="1145"/>
      <point x="803" y="1182" type="curve"/>
      <point x="809" y="1182" type="line"/>
      <point x="924" y="741" type="line"/>
      <point x="1038" y="741" type="line"/>
      <point x="1159" y="1182" type="line"/>
      <point x="1167" y="1182" type="line"/>
      <point x="1163" y="1153"/>
      <point x="1161" y="1116"/>
      <point x="1161" y="1071" type="curve" smooth="yes"/>
      <point x="1161" y="741" type="line"/>
      <point x="1356" y="741" type="line"/>
      <point x="1356" y="1462" type="line"/>
      <point x="1094" y="1462" type="line"/>
      <point x="985" y="1063" type="line"/>
      <point x="885" y="1462" type="line"/>
      <point x="612" y="1462" type="line"/>
    </contour>
    <contour>
      <point x="256" y="733" type="curve" smooth="yes"/>
      <point x="383" y="733"/>
      <point x="508" y="807"/>
      <point x="508" y="950" type="curve" smooth="yes"/>
      <point x="508" y="1055"/>
      <point x="457" y="1116"/>
      <point x="348" y="1167" type="curve" smooth="yes"/>
      <point x="279" y="1200"/>
      <point x="254" y="1227"/>
      <point x="254" y="1264" type="curve" smooth="yes"/>
      <point x="254" y="1300"/>
      <point x="274" y="1319"/>
      <point x="315" y="1319" type="curve" smooth="yes"/>
      <point x="352" y="1319"/>
      <point x="397" y="1303"/>
      <point x="446" y="1272" type="curve"/>
      <point x="514" y="1413" type="line"/>
      <point x="442" y="1452"/>
      <point x="373" y="1473"/>
      <point x="301" y="1473" type="curve" smooth="yes"/>
      <point x="145" y="1473"/>
      <point x="49" y="1393"/>
      <point x="49" y="1255" type="curve" smooth="yes"/>
      <point x="49" y="1145"/>
      <point x="94" y="1085"/>
      <point x="240" y="1016" type="curve" smooth="yes"/>
      <point x="281" y="995"/>
      <point x="301" y="973"/>
      <point x="301" y="944" type="curve" smooth="yes"/>
      <point x="301" y="907"/>
      <point x="274" y="887"/>
      <point x="236" y="887" type="curve" smooth="yes"/>
      <point x="174" y="887"/>
      <point x="113" y="905"/>
      <point x="49" y="944" type="curve"/>
      <point x="49" y="778" type="line"/>
      <point x="106" y="748"/>
      <point x="170" y="733"/>
    </contour>
  </outline>
</glyph>
<glyph name="olowringinside" format="2">
  <advance width="1098"/>
  <unicode hex="2C7A"/>
  <anchor x="549" y="0" name="bottom"/>
  <anchor x="549" y="1133" name="top"/>
  <outline>
    <contour>
      <point x="1030" y="569" type="curve" smooth="yes"/>
      <point x="1030" y="942"/>
      <point x="846" y="1153"/>
      <point x="551" y="1153" type="curve" smooth="yes"/>
      <point x="199" y="1153"/>
      <point x="66" y="895"/>
      <point x="66" y="569" type="curve" smooth="yes"/>
      <point x="66" y="270"/>
      <point x="205" y="-20"/>
      <point x="547" y="-20" type="curve" smooth="yes"/>
      <point x="915" y="-20"/>
      <point x="1030" y="279"/>
    </contour>
    <contour>
      <point x="729" y="569" type="curve" smooth="yes"/>
      <point x="729" y="348"/>
      <point x="688" y="238"/>
      <point x="551" y="238" type="curve" smooth="yes"/>
      <point x="418" y="238"/>
      <point x="369" y="350"/>
      <point x="369" y="565" type="curve" smooth="yes"/>
      <point x="369" y="791"/>
      <point x="418" y="893"/>
      <point x="551" y="893" type="curve" smooth="yes"/>
      <point x="688" y="893"/>
      <point x="729" y="786"/>
    </contour>
    <contour>
      <point x="760" y="350" type="curve" smooth="yes"/>
      <point x="760" y="473"/>
      <point x="676" y="567"/>
      <point x="551" y="567" type="curve" smooth="yes"/>
      <point x="426" y="567"/>
      <point x="342" y="477"/>
      <point x="342" y="348" type="curve" smooth="yes"/>
      <point x="342" y="225"/>
      <point x="426" y="135"/>
      <point x="551" y="135" type="curve" smooth="yes"/>
      <point x="678" y="135"/>
      <point x="760" y="231"/>
    </contour>
    <contour>
      <point x="635" y="324" type="curve" smooth="yes"/>
      <point x="635" y="274"/>
      <point x="598" y="240"/>
      <point x="551" y="240" type="curve" smooth="yes"/>
      <point x="496" y="240"/>
      <point x="467" y="274"/>
      <point x="467" y="324" type="curve" smooth="yes"/>
      <point x="467" y="373"/>
      <point x="504" y="408"/>
      <point x="551" y="408" type="curve" smooth="yes"/>
      <point x="598" y="408"/>
      <point x="635" y="373"/>
    </contour>
  </outline>
</glyph>
<glyph name="uni2DF5" format="2">
  <unicode hex="2DF5"/>
  <anchor x="0" y="1133" name="_top"/>
  <anchor x="-6" y="1722" name="top"/>
  <anchor x="408" y="1722" name="topright"/>
  <outline>
    <contour>
      <point x="-131" y="1262" type="curve" smooth="yes"/>
      <point x="-80" y="1262"/>
      <point x="-37" y="1274"/>
      <point x="0" y="1303" type="curve"/>
      <point x="0" y="1415" type="line"/>
      <point x="-37" y="1389"/>
      <point x="-76" y="1374"/>
      <point x="-115" y="1374" type="curve" smooth="yes"/>
      <point x="-160" y="1374"/>
      <point x="-184" y="1415"/>
      <point x="-184" y="1495" type="curve" smooth="yes"/>
      <point x="-184" y="1569"/>
      <point x="-158" y="1612"/>
      <point x="-94" y="1612" type="curve" smooth="yes"/>
      <point x="115" y="1612" type="line"/>
      <point x="115" y="1270" type="line"/>
      <point x="264" y="1270" type="line"/>
      <point x="264" y="1612" type="line"/>
      <point x="383" y="1612" type="line"/>
      <point x="383" y="1722" type="line"/>
      <point x="-115" y="1722" type="line" smooth="yes"/>
      <point x="-272" y="1722"/>
      <point x="-336" y="1622"/>
      <point x="-336" y="1495" type="curve" smooth="yes"/>
      <point x="-336" y="1333"/>
      <point x="-268" y="1262"/>
    </contour>
  </outline>
</glyph>
<glyph name="brackhalfbottomleft" format="2">
  <advance width="621"/>
  <unicode hex="2E24"/>
  <outline>
    <contour>
      <point x="84" y="-340" type="line"/>
      <point x="586" y="-340" type="line"/>
      <point x="586" y="-86" type="line"/>
      <point x="391" y="-86" type="line"/>
      <point x="391" y="584" type="line"/>
      <point x="84" y="584" type="line"/>
    </contour>
  </outline>
</glyph>
<glyph name="uni2E3E" format="2">
  <advance width="682"/>
  <unicode hex="2E3E"/>
  <outline>
    <contour>
      <point x="326" y="8" type="curve" smooth="yes"/>
      <point x="326" y="141"/>
      <point x="575" y="96"/>
      <point x="575" y="354" type="curve" smooth="yes"/>
      <point x="575" y="627"/>
      <point x="326" y="596"/>
      <point x="326" y="705" type="curve" smooth="yes"/>
      <point x="326" y="813"/>
      <point x="575" y="782"/>
      <point x="575" y="1055" type="curve" smooth="yes"/>
      <point x="575" y="1323"/>
      <point x="326" y="1276"/>
      <point x="326" y="1415" type="curve" smooth="yes"/>
      <point x="326" y="1483"/>
      <point x="406" y="1550"/>
      <point x="575" y="1571" type="curve"/>
      <point x="575" y="1767" type="line"/>
      <point x="285" y="1753"/>
      <point x="106" y="1624"/>
      <point x="106" y="1401" type="curve" smooth="yes"/>
      <point x="106" y="1133"/>
      <point x="356" y="1157"/>
      <point x="356" y="1055" type="curve" smooth="yes"/>
      <point x="356" y="934"/>
      <point x="106" y="977"/>
      <point x="106" y="705" type="curve" smooth="yes"/>
      <point x="106" y="432"/>
      <point x="356" y="475"/>
      <point x="356" y="354" type="curve" smooth="yes"/>
      <point x="356" y="252"/>
      <point x="106" y="276"/>
      <point x="106" y="8" type="curve"/>
      <point x="106" y="-260"/>
      <point x="356" y="-213"/>
      <point x="356" y="-352" type="curve" smooth="yes"/>
      <point x="356" y="-420"/>
      <point x="276" y="-487"/>
      <point x="106" y="-508" type="curve"/>
      <point x="106" y="-705" type="line"/>
      <point x="397" y="-690"/>
      <point x="575" y="-561"/>
      <point x="575" y="-338" type="curve" smooth="yes"/>
      <point x="575" y="-70"/>
      <point x="326" y="-94"/>
    </contour>
  </outline>
</glyph>
<glyph name="uniA640" format="2">
  <advance width="965"/>
  <unicode hex="A640"/>
  <outline>
    <contour>
      <point x="66" y="-481" type="line"/>
      <point x="98" y="-455"/>
      <point x="195" y="-446"/>
      <point x="268" y="-446" type="curve" smooth="yes"/>
      <point x="334" y="-446"/>
      <point x="438" y="-455"/>
      <point x="557" y="-455" type="curve" smooth="yes"/>
      <point x="813" y="-455"/>
      <point x="952" y="-315"/>
      <point x="952" y="-70" type="curve" smooth="yes"/>
      <point x="952" y="147"/>
      <point x="844" y="299"/>
      <point x="508" y="299" type="curve" smooth="yes"/>
      <point x="436" y="299" type="line"/>
      <point x="909" y="1219" type="line"/>
      <point x="909" y="1462" type="line"/>
      <point x="53" y="1462" type="line"/>
      <point x="53" y="1167" type="line"/>
      <point x="514" y="1167" type="line"/>
      <point x="43" y="244" type="line"/>
      <point x="43" y="0" type="line"/>
      <point x="481" y="0" type="line" smooth="yes"/>
      <point x="586" y="0"/>
      <point x="621" y="-25"/>
      <point x="621" y="-84" type="curve" smooth="yes"/>
      <point x="621" y="-139"/>
      <point x="588" y="-176"/>
      <point x="498" y="-176" type="curve" smooth="yes"/>
      <point x="385" y="-176"/>
      <point x="328" y="-166"/>
      <point x="258" y="-166" type="curve" smooth="yes"/>
      <point x="152" y="-166"/>
      <point x="86" y="-193"/>
      <point x="66" y="-209" type="curve"/>
    </contour>
  </outline>
</glyph>
<glyph name="uniA641" format="2">
  <advance width="813"/>
  <unicode hex="A641"/>
  <outline>
    <contour>
      <point x="45" y="-479" type="line"/>
      <point x="63" y="-461"/>
      <point x="121" y="-444"/>
      <point x="197" y="-444" type="curve" smooth="yes"/>
      <point x="242" y="-444"/>
      <point x="293" y="-453"/>
      <point x="418" y="-453" type="curve" smooth="yes"/>
      <point x="680" y="-453"/>
      <point x="797" y="-297"/>
      <point x="797" y="-70" type="curve" smooth="yes"/>
      <point x="797" y="184"/>
      <point x="610" y="276"/>
      <point x="436" y="276" type="curve" smooth="yes"/>
      <point x="420" y="276" type="line"/>
      <point x="762" y="913" type="line"/>
      <point x="762" y="1133" type="line"/>
      <point x="53" y="1133" type="line"/>
      <point x="53" y="856" type="line"/>
      <point x="391" y="856" type="line"/>
      <point x="33" y="201" type="line"/>
      <point x="33" y="0" type="line"/>
      <point x="319" y="0" type="line" smooth="yes"/>
      <point x="430" y="0"/>
      <point x="485" y="-29"/>
      <point x="485" y="-92" type="curve" smooth="yes"/>
      <point x="485" y="-158"/>
      <point x="436" y="-176"/>
      <point x="354" y="-176" type="curve" smooth="yes"/>
      <point x="281" y="-176"/>
      <point x="242" y="-166"/>
      <point x="188" y="-166" type="curve" smooth="yes"/>
      <point x="104" y="-166"/>
      <point x="66" y="-176"/>
      <point x="45" y="-201" type="curve"/>
    </contour>
  </outline>
</glyph>
<glyph name="uniA657" format="2">
  <advance width="1544"/>
  <unicode hex="A657"/>
  <anchor x="768" y="2" name="bottom"/>
  <anchor x="768" y="1143" name="top"/>
  <outline>
    <contour>
      <point x="852" y="-20" type="curve" smooth="yes"/>
      <point x="993" y="-20"/>
      <point x="1069" y="35"/>
      <point x="1143" y="150" type="curve"/>
      <point x="1149" y="150" type="line"/>
      <point x="1204" y="0" type="line"/>
      <point x="1444" y="0" type="line"/>
      <point x="1444" y="743" type="line" smooth="yes"/>
      <point x="1444" y="1020"/>
      <point x="1303" y="1153"/>
      <point x="1077" y="1153" type="curve" smooth="yes"/>
      <point x="922" y="1153"/>
      <point x="784" y="1116"/>
      <point x="674" y="1051" type="curve"/>
      <point x="760" y="805" type="line"/>
      <point x="860" y="862"/>
      <point x="938" y="889"/>
      <point x="1004" y="889" type="curve" smooth="yes"/>
      <point x="1077" y="889"/>
      <point x="1112" y="842"/>
      <point x="1112" y="750" type="curve" smooth="yes"/>
      <point x="1112" y="719" type="line"/>
      <point x="434" y="719" type="line"/>
      <point x="434" y="1133" type="line"/>
      <point x="102" y="1133" type="line"/>
      <point x="102" y="0" type="line"/>
      <point x="434" y="0" type="line"/>
      <point x="434" y="440" type="line"/>
      <point x="614" y="440" type="line"/>
      <point x="598" y="414"/>
      <point x="584" y="350"/>
      <point x="584" y="289" type="curve" smooth="yes"/>
      <point x="584" y="145"/>
      <point x="657" y="-20"/>
    </contour>
    <contour>
      <point x="995" y="244" type="curve" smooth="yes"/>
      <point x="942" y="244"/>
      <point x="915" y="283"/>
      <point x="915" y="360" type="curve" smooth="yes"/>
      <point x="915" y="451"/>
      <point x="961" y="498"/>
      <point x="1051" y="502" type="curve" smooth="yes"/>
      <point x="1112" y="506" type="line"/>
      <point x="1112" y="406" type="line" smooth="yes"/>
      <point x="1112" y="309"/>
      <point x="1061" y="244"/>
    </contour>
  </outline>
</glyph>
<glyph name="uniA65B" format="2">
  <advance width="1223"/>
  <unicode hex="A65B"/>
  <outline>
    <contour>
      <point x="864" y="162" type="line"/>
      <point x="891" y="0" type="line"/>
      <point x="1212" y="0" type="line"/>
      <point x="1124" y="373" type="line" smooth="yes"/>
      <point x="1081" y="557"/>
      <point x="1010" y="612"/>
      <point x="881" y="649" type="curve"/>
      <point x="1098" y="983" type="line"/>
      <point x="1098" y="1133" type="line"/>
      <point x="119" y="1133" type="line"/>
      <point x="119" y="983" type="line"/>
      <point x="336" y="651" type="line"/>
      <point x="215" y="623"/>
      <point x="133" y="559"/>
      <point x="92" y="373" type="curve" smooth="yes"/>
      <point x="10" y="0" type="line"/>
      <point x="332" y="0" type="line"/>
      <point x="360" y="162" type="line"/>
      <point x="469" y="162" type="line"/>
      <point x="469" y="0" type="line"/>
      <point x="756" y="0" type="line"/>
      <point x="756" y="162" type="line"/>
    </contour>
    <contour>
      <point x="483" y="901" type="line"/>
      <point x="733" y="901" type="line"/>
      <point x="608" y="686" type="line"/>
    </contour>
    <contour>
      <point x="559" y="481" type="curve" smooth="yes"/>
      <point x="676" y="481" type="line" smooth="yes"/>
      <point x="772" y="481"/>
      <point x="809" y="459"/>
      <point x="829" y="362" type="curve"/>
      <point x="395" y="362" type="line"/>
      <point x="418" y="461"/>
      <point x="453" y="481"/>
    </contour>
  </outline>
</glyph>
<glyph name="uniA67C" format="2">
  <unicode hex="A67C"/>
  <anchor x="2" y="1133" name="_top"/>
  <outline>
    <contour>
      <point x="381" y="1583" type="curve"/>
      <point x="133" y="1583" type="line"/>
      <point x="131" y="1524"/>
      <point x="113" y="1477"/>
      <point x="-2" y="1477" type="curve" smooth="yes"/>
      <point x="-119" y="1477"/>
      <point x="-135" y="1526"/>
      <point x="-135" y="1583" type="curve"/>
      <point x="-379" y="1583" type="line"/>
      <point x="-362" y="1419"/>
      <point x="-254" y="1325"/>
      <point x="-2" y="1325" type="curve" smooth="yes"/>
      <point x="236" y="1325"/>
      <point x="356" y="1419"/>
    </contour>
  </outline>
</glyph>
<glyph name="uniA68A" format="2">
  <advance width="1282"/>
  <unicode hex="A68A"/>
  <outline>
    <contour>
      <point x="850" y="547" type="curve" smooth="yes"/>
      <point x="850" y="-92" type="line"/>
      <point x="848" y="-170"/>
      <point x="829" y="-197"/>
      <point x="780" y="-197" type="curve" smooth="yes"/>
      <point x="760" y="-197"/>
      <point x="739" y="-188"/>
      <point x="725" y="-180" type="curve"/>
      <point x="725" y="-471" type="line"/>
      <point x="766" y="-483"/>
      <point x="811" y="-492"/>
      <point x="858" y="-492" type="curve" smooth="yes"/>
      <point x="1083" y="-492"/>
      <point x="1196" y="-340"/>
      <point x="1196" y="-59" type="curve" smooth="yes"/>
      <point x="1196" y="545" type="line" smooth="yes"/>
      <point x="1196" y="801"/>
      <point x="1061" y="956"/>
      <point x="811" y="956" type="curve" smooth="yes"/>
      <point x="639" y="956" type="line"/>
      <point x="639" y="1161" type="line"/>
      <point x="893" y="1161" type="line"/>
      <point x="893" y="1462" type="line"/>
      <point x="35" y="1462" type="line"/>
      <point x="35" y="1161" type="line"/>
      <point x="291" y="1161" type="line"/>
      <point x="291" y="0" type="line"/>
      <point x="639" y="0" type="line"/>
      <point x="639" y="655" type="line"/>
      <point x="758" y="655" type="line" smooth="yes"/>
      <point x="819" y="655"/>
      <point x="850" y="621"/>
    </contour>
  </outline>
</glyph>
<glyph name="uniA690" format="2">
  <advance width="942"/>
  <unicode hex="A690"/>
  <outline>
    <contour>
      <point x="389" y="-446" type="curve" smooth="yes"/>
      <point x="463" y="-446"/>
      <point x="518" y="-434"/>
      <point x="563" y="-420" type="curve"/>
      <point x="563" y="-199" type="line"/>
      <point x="535" y="-211"/>
      <point x="479" y="-221"/>
      <point x="444" y="-221" type="curve" smooth="yes"/>
      <point x="397" y="-221"/>
      <point x="367" y="-190"/>
      <point x="367" y="-141" type="curve" smooth="yes"/>
      <point x="367" y="-80"/>
      <point x="416" y="0"/>
      <point x="551" y="0" type="curve" smooth="yes"/>
      <point x="645" y="0" type="line"/>
      <point x="645" y="1161" type="line"/>
      <point x="907" y="1161" type="line"/>
      <point x="907" y="1462" type="line"/>
      <point x="35" y="1462" type="line"/>
      <point x="35" y="1161" type="line"/>
      <point x="299" y="1161" type="line"/>
      <point x="299" y="94" type="line"/>
      <point x="195" y="45"/>
      <point x="113" y="-49"/>
      <point x="113" y="-184" type="curve" smooth="yes"/>
      <point x="113" y="-358"/>
      <point x="233" y="-446"/>
    </contour>
  </outline>
</glyph>
<glyph name="uniA694" format="2">
  <advance width="1163"/>
  <unicode hex="A694"/>
  <outline>
    <contour>
      <point x="121" y="1051" type="curve"/>
      <point x="121" y="0" type="line"/>
      <point x="469" y="0" type="line"/>
      <point x="469" y="651" type="line"/>
      <point x="532" y="690"/>
      <point x="588" y="709"/>
      <point x="631" y="709" type="curve" smooth="yes"/>
      <point x="698" y="709"/>
      <point x="725" y="664"/>
      <point x="725" y="510" type="curve" smooth="yes"/>
      <point x="725" y="0" type="line"/>
      <point x="1073" y="0" type="line"/>
      <point x="1073" y="618" type="line" smooth="yes"/>
      <point x="1073" y="881"/>
      <point x="961" y="1010"/>
      <point x="774" y="1010" type="curve" smooth="yes"/>
      <point x="684" y="1010"/>
      <point x="584" y="989"/>
      <point x="469" y="932" type="curve"/>
      <point x="469" y="1083" type="line"/>
      <point x="471" y="1161"/>
      <point x="487" y="1188"/>
      <point x="537" y="1188" type="curve" smooth="yes"/>
      <point x="557" y="1188"/>
      <point x="578" y="1180"/>
      <point x="592" y="1171" type="curve"/>
      <point x="592" y="1462" type="line"/>
      <point x="551" y="1475"/>
      <point x="506" y="1483"/>
      <point x="459" y="1483" type="curve" smooth="yes"/>
      <point x="233" y="1483"/>
      <point x="121" y="1331"/>
    </contour>
  </outline>
</glyph>
<glyph name="uniA72C" format="2">
  <advance width="965"/>
  <unicode hex="A72C"/>
  <outline>
    <contour>
      <point x="844" y="1462" type="line"/>
      <point x="516" y="1462" type="line"/>
      <point x="33" y="557" type="line"/>
      <point x="33" y="324" type="line"/>
      <point x="508" y="324" type="line"/>
      <point x="508" y="315" type="line" smooth="yes"/>
      <point x="508" y="252"/>
      <point x="465" y="221"/>
      <point x="371" y="221" type="curve" smooth="yes"/>
      <point x="328" y="221"/>
      <point x="291" y="229"/>
      <point x="258" y="242" type="curve"/>
      <point x="258" y="0" type="line"/>
      <point x="311" y="-14"/>
      <point x="369" y="-20"/>
      <point x="467" y="-20" type="curve" smooth="yes"/>
      <point x="700" y="-20"/>
      <point x="844" y="109"/>
      <point x="844" y="395" type="curve" smooth="yes"/>
    </contour>
    <contour>
      <point x="508" y="563" type="line"/>
      <point x="305" y="563" type="line"/>
      <point x="446" y="831" type="line" smooth="yes"/>
      <point x="469" y="872"/>
      <point x="489" y="920"/>
      <point x="506" y="977" type="curve"/>
      <point x="514" y="977" type="line"/>
      <point x="510" y="909"/>
      <point x="508" y="786"/>
      <point x="508" y="762" type="curve" smooth="yes"/>
    </contour>
  </outline>
</glyph>
<glyph name="uniA743" format="2">
  <advance width="1067"/>
  <unicode hex="A743"/>
  <anchor x="561" y="0" name="bottom"/>
  <anchor x="268" y="1556" name="top"/>
  <outline>
    <contour>
      <point x="481" y="211" type="line"/>
      <point x="561" y="74" type="line"/>
      <point x="1061" y="362" type="line"/>
      <point x="981" y="500" type="line"/>
    </contour>
    <component base="k"/>
  </outline>
</glyph>
<glyph name="uniA76F" format="2">
  <advance width="1014"/>
  <unicode hex="A76F"/>
  <anchor x="496" y="-487" name="bottom"/>
  <anchor x="508" y="1157" name="top"/>
  <outline>
    <contour>
      <point x="502" y="877" type="curve" smooth="yes"/>
      <point x="580" y="877"/>
      <point x="616" y="799"/>
      <point x="612" y="367" type="curve" smooth="yes"/>
      <point x="608" y="-70"/>
      <point x="502" y="-215"/>
      <point x="287" y="-215" type="curve"/>
      <point x="287" y="-492" type="line"/>
      <point x="733" y="-492"/>
      <point x="948" y="-188"/>
      <point x="948" y="385" type="curve" smooth="yes"/>
      <point x="948" y="999"/>
      <point x="776" y="1153"/>
      <point x="494" y="1153" type="curve" smooth="yes"/>
      <point x="225" y="1153"/>
      <point x="61" y="963"/>
      <point x="61" y="602" type="curve" smooth="yes"/>
      <point x="61" y="307"/>
      <point x="182" y="96"/>
      <point x="391" y="96" type="curve" smooth="yes"/>
      <point x="440" y="96"/>
      <point x="483" y="100"/>
      <point x="518" y="111" type="curve"/>
      <point x="518" y="379" type="line"/>
      <point x="510" y="375"/>
      <point x="492" y="373"/>
      <point x="467" y="373" type="curve" smooth="yes"/>
      <point x="432" y="373"/>
      <point x="397" y="418"/>
      <point x="397" y="608" type="curve" smooth="yes"/>
      <point x="397" y="819"/>
      <point x="434" y="877"/>
    </contour>
  </outline>
</glyph>
<glyph name="uniA779" format="2">
  <advance width="1272"/>
  <unicode hex="A779"/>
  <outline>
    <contour>
      <point x="637" y="1462" type="curve"/>
      <point x="20" y="1462" type="line"/>
      <point x="20" y="1163" type="line"/>
      <point x="186" y="1163" type="line"/>
      <point x="125" y="1049"/>
      <point x="80" y="903"/>
      <point x="80" y="725" type="curve" smooth="yes"/>
      <point x="80" y="233"/>
      <point x="276" y="-20"/>
      <point x="637" y="-20" type="curve" smooth="yes"/>
      <point x="999" y="-20"/>
      <point x="1192" y="231"/>
      <point x="1192" y="723" type="curve" smooth="yes"/>
      <point x="1192" y="1217"/>
      <point x="1001" y="1462"/>
    </contour>
    <contour>
      <point x="637" y="285" type="curve" smooth="yes"/>
      <point x="508" y="285"/>
      <point x="442" y="424"/>
      <point x="442" y="723" type="curve" smooth="yes"/>
      <point x="442" y="1024"/>
      <point x="508" y="1165"/>
      <point x="637" y="1165" type="curve" smooth="yes"/>
      <point x="766" y="1165"/>
      <point x="829" y="1032"/>
      <point x="829" y="723" type="curve" smooth="yes"/>
      <point x="829" y="416"/>
      <point x="768" y="285"/>
    </contour>
  </outline>
</glyph>
<glyph name="uniA78F" format="2">
  <advance width="657"/>
  <unicode hex="A78F"/>
  <outline>
    <contour>
      <point x="61" y="811" type="curve" smooth="yes"/>
      <point x="61" y="623"/>
      <point x="186" y="543"/>
      <point x="332" y="543" type="curve" smooth="yes"/>
      <point x="473" y="543"/>
      <point x="594" y="623"/>
      <point x="594" y="811" type="curve" smooth="yes"/>
      <point x="594" y="1006"/>
      <point x="473" y="1081"/>
      <point x="332" y="1081" type="curve" smooth="yes"/>
      <point x="186" y="1081"/>
      <point x="61" y="1006"/>
    </contour>
  </outline>
</glyph>
<glyph name="uniA79A" format="2">
  <advance width="1337"/>
  <unicode hex="A79A"/>
  <outline>
    <contour>
      <point x="518" y="-20" type="curve" smooth="yes"/>
      <point x="705" y="-20"/>
      <point x="772" y="68"/>
      <point x="829" y="152" type="curve"/>
      <point x="848" y="152" type="line"/>
      <point x="920" y="0" type="line"/>
      <point x="1202" y="0" type="line"/>
      <point x="1202" y="1462" type="line"/>
      <point x="883" y="1462" type="line"/>
      <point x="858" y="1315" type="line"/>
      <point x="852" y="1315" type="line"/>
      <point x="786" y="1401"/>
      <point x="688" y="1483"/>
      <point x="512" y="1483" type="curve" smooth="yes"/>
      <point x="281" y="1483"/>
      <point x="121" y="1333"/>
      <point x="121" y="1118" type="curve" smooth="yes"/>
      <point x="121" y="926"/>
      <point x="221" y="811"/>
      <point x="399" y="772" type="curve"/>
      <point x="399" y="764" type="line"/>
      <point x="180" y="737"/>
      <point x="76" y="608"/>
      <point x="76" y="416" type="curve" smooth="yes"/>
      <point x="76" y="156"/>
      <point x="248" y="-20"/>
    </contour>
    <contour>
      <point x="614" y="272" type="curve" smooth="yes"/>
      <point x="481" y="272"/>
      <point x="424" y="326"/>
      <point x="424" y="449" type="curve" smooth="yes"/>
      <point x="424" y="561"/>
      <point x="514" y="616"/>
      <point x="639" y="616" type="curve" smooth="yes"/>
      <point x="662" y="616" type="line"/>
      <point x="662" y="905" type="line"/>
      <point x="655" y="905" type="line" smooth="yes"/>
      <point x="508" y="905"/>
      <point x="461" y="956"/>
      <point x="461" y="1057" type="curve" smooth="yes"/>
      <point x="461" y="1143"/>
      <point x="500" y="1190"/>
      <point x="614" y="1190" type="curve" smooth="yes"/>
      <point x="817" y="1190"/>
      <point x="866" y="1092"/>
      <point x="866" y="856" type="curve" smooth="yes"/>
      <point x="866" y="678" type="line" smooth="yes"/>
      <point x="866" y="393"/>
      <point x="815" y="272"/>
    </contour>
  </outline>
</glyph>
<glyph name="uniA7A6" format="2">
  <advance width="1116"/>
  <unicode hex="A7A6"/>
  <outline>
    <contour>
      <point x="1106" y="0" type="line"/>
      <point x="821" y="578" type="line"/>
      <point x="944" y="664"/>
      <point x="1010" y="782"/>
      <point x="1018" y="958" type="curve"/>
      <point x="1116" y="977" type="line"/>
      <point x="1116" y="1174" type="line"/>
      <point x="1004" y="1153" type="line"/>
      <point x="956" y="1364"/>
      <point x="793" y="1462"/>
      <point x="512" y="1462" type="curve" smooth="yes"/>
      <point x="121" y="1462" type="line"/>
      <point x="121" y="983" type="line"/>
      <point x="0" y="961" type="line"/>
      <point x="0" y="764" type="line"/>
      <point x="121" y="786" type="line"/>
      <point x="121" y="0" type="line"/>
      <point x="469" y="0" type="line"/>
      <point x="469" y="489" type="line"/>
      <point x="514" y="489" type="line"/>
      <point x="723" y="0" type="line"/>
    </contour>
    <contour>
      <point x="469" y="1051" type="line"/>
      <point x="469" y="1171" type="line"/>
      <point x="508" y="1171" type="line" smooth="yes"/>
      <point x="580" y="1171"/>
      <point x="627" y="1145"/>
      <point x="647" y="1083" type="curve"/>
    </contour>
    <contour>
      <point x="506" y="760" type="curve" smooth="yes"/>
      <point x="469" y="760" type="line"/>
      <point x="469" y="854" type="line"/>
      <point x="653" y="889" type="line"/>
      <point x="635" y="799"/>
      <point x="586" y="760"/>
    </contour>
  </outline>
</glyph>
<glyph name="uniAB30" format="2">
  <advance width="1094"/>
  <unicode hex="AB30"/>
  <outline>
    <contour>
      <point x="6" y="688" type="line"/>
      <point x="6" y="451" type="line"/>
      <point x="1073" y="451" type="line"/>
      <point x="1073" y="688" type="line"/>
    </contour>
    <component base="uni0251"/>
  </outline>
</glyph>
<glyph name="uniAB3B" format="2">
  <advance width="1221"/>
  <unicode hex="AB3B"/>
  <outline>
    <contour>
      <point x="786" y="-20" type="curve" smooth="yes"/>
      <point x="965" y="-20"/>
      <point x="1085" y="94"/>
      <point x="1085" y="354" type="curve"/>
      <point x="1118" y="352"/>
      <point x="1145" y="348"/>
      <point x="1184" y="342" type="curve"/>
      <point x="1210" y="528" type="line"/>
      <point x="1176" y="535"/>
      <point x="1133" y="541"/>
      <point x="1085" y="545" type="curve"/>
      <point x="1085" y="737" type="line" smooth="yes"/>
      <point x="1085" y="1001"/>
      <point x="950" y="1153"/>
      <point x="717" y="1153" type="curve" smooth="yes"/>
      <point x="575" y="1153"/>
      <point x="479" y="1100"/>
      <point x="418" y="993" type="curve"/>
      <point x="399" y="993" type="line"/>
      <point x="362" y="1133" type="line"/>
      <point x="102" y="1133" type="line"/>
      <point x="102" y="0" type="line"/>
      <point x="434" y="0" type="line"/>
      <point x="434" y="518" type="line" smooth="yes"/>
      <point x="434" y="774"/>
      <point x="477" y="858"/>
      <point x="625" y="858" type="curve" smooth="yes"/>
      <point x="723" y="858"/>
      <point x="754" y="780"/>
      <point x="754" y="631" type="curve" smooth="yes"/>
      <point x="754" y="539" type="line"/>
      <point x="610" y="510"/>
      <point x="489" y="432"/>
      <point x="489" y="246" type="curve" smooth="yes"/>
      <point x="489" y="61"/>
      <point x="590" y="-20"/>
    </contour>
    <contour>
      <point x="696" y="170" type="curve" smooth="yes"/>
      <point x="666" y="170"/>
      <point x="635" y="186"/>
      <point x="635" y="236" type="curve" smooth="yes"/>
      <point x="635" y="303"/>
      <point x="678" y="352"/>
      <point x="754" y="352" type="curve"/>
      <point x="754" y="299" type="line" smooth="yes"/>
      <point x="754" y="211"/>
      <point x="737" y="170"/>
    </contour>
  </outline>
</glyph>
<glyph name="uniAB48" format="2">
  <advance width="1083"/>
  <unicode hex="AB48"/>
  <outline>
    <contour>
      <point x="975" y="1153" type="curve" smooth="yes"/>
      <point x="862" y="1153"/>
      <point x="776" y="1044"/>
      <point x="737" y="952" type="curve"/>
      <point x="737" y="1141" type="line"/>
      <point x="713" y="1149"/>
      <point x="686" y="1153"/>
      <point x="659" y="1153" type="curve" smooth="yes"/>
      <point x="547" y="1153"/>
      <point x="461" y="1044"/>
      <point x="422" y="952" type="curve"/>
      <point x="406" y="952" type="line"/>
      <point x="358" y="1133" type="line"/>
      <point x="104" y="1133" type="line"/>
      <point x="104" y="0" type="line"/>
      <point x="436" y="0" type="line"/>
      <point x="436" y="569" type="line" smooth="yes"/>
      <point x="436" y="717"/>
      <point x="492" y="797"/>
      <point x="623" y="797" type="curve" smooth="yes"/>
      <point x="666" y="797"/>
      <point x="711" y="791"/>
      <point x="737" y="776" type="curve"/>
      <point x="774" y="788"/>
      <point x="846" y="797"/>
      <point x="907" y="797" type="curve" smooth="yes"/>
      <point x="961" y="797"/>
      <point x="1014" y="793"/>
      <point x="1040" y="784" type="curve"/>
      <point x="1067" y="1141" type="line"/>
      <point x="1026" y="1151"/>
      <point x="1001" y="1153"/>
    </contour>
  </outline>
</glyph>
<glyph name="uniAB52" format="2">
  <advance width="1155"/>
  <unicode hex="AB52"/>
  <anchor x="598" y="2" name="bottom"/>
  <anchor x="604" y="1137" name="top"/>
  <outline>
    <contour>
      <point x="504" y="784" type="line" smooth="yes"/>
      <point x="504" y="1032"/>
      <point x="381" y="1153"/>
      <point x="162" y="1153" type="curve" smooth="yes"/>
      <point x="113" y="1153"/>
      <point x="27" y="1141"/>
      <point x="-10" y="1128" type="curve"/>
      <point x="-10" y="848" type="line"/>
      <point x="23" y="860"/>
      <point x="53" y="866"/>
      <point x="82" y="866" type="curve" smooth="yes"/>
      <point x="143" y="866"/>
      <point x="172" y="823"/>
      <point x="172" y="737" type="curve" smooth="yes"/>
      <point x="172" y="395" type="line" smooth="yes"/>
      <point x="172" y="131"/>
      <point x="287" y="-20"/>
      <point x="485" y="-20" type="curve" smooth="yes"/>
      <point x="606" y="-20"/>
      <point x="686" y="33"/>
      <point x="739" y="139" type="curve"/>
      <point x="756" y="139" type="line"/>
      <point x="795" y="0" type="line"/>
      <point x="1053" y="0" type="line"/>
      <point x="1053" y="1133" type="line"/>
      <point x="721" y="1133" type="line"/>
      <point x="721" y="573" type="line" smooth="yes"/>
      <point x="721" y="391"/>
      <point x="711" y="274"/>
      <point x="592" y="274" type="curve" smooth="yes"/>
      <point x="526" y="274"/>
      <point x="504" y="352"/>
      <point x="504" y="504" type="curve" smooth="yes"/>
    </contour>
  </outline>
</glyph>
<glyph name="uniAB55" format="2">
  <advance width="1075"/>
  <unicode hex="AB55"/>
  <outline>
    <contour>
      <point x="-147" y="-492" type="line"/>
      <point x="117" y="-492" type="line" smooth="yes"/>
      <point x="309" y="-492"/>
      <point x="381" y="-406"/>
      <point x="459" y="-176" type="curve" smooth="yes"/>
      <point x="506" y="-43" type="line"/>
      <point x="530" y="-133" type="line" smooth="yes"/>
      <point x="610" y="-410"/>
      <point x="696" y="-492"/>
      <point x="891" y="-492" type="curve" smooth="yes"/>
      <point x="969" y="-492"/>
      <point x="1020" y="-485"/>
      <point x="1063" y="-475" type="curve"/>
      <point x="1063" y="-203" type="line"/>
      <point x="1034" y="-211"/>
      <point x="1008" y="-215"/>
      <point x="979" y="-215" type="curve" smooth="yes"/>
      <point x="897" y="-215"/>
      <point x="879" y="-193"/>
      <point x="817" y="16" type="curve" smooth="yes"/>
      <point x="721" y="346" type="line"/>
      <point x="1065" y="1133" type="line"/>
      <point x="729" y="1133" type="line"/>
      <point x="596" y="762" type="line"/>
      <point x="578" y="838" type="line" smooth="yes"/>
      <point x="514" y="1067"/>
      <point x="428" y="1153"/>
      <point x="236" y="1153" type="curve" smooth="yes"/>
      <point x="172" y="1153"/>
      <point x="111" y="1145"/>
      <point x="72" y="1135" type="curve"/>
      <point x="72" y="862" type="line"/>
      <point x="94" y="870"/>
      <point x="127" y="877"/>
      <point x="154" y="877" type="curve" smooth="yes"/>
      <point x="205" y="877"/>
      <point x="240" y="854"/>
      <point x="274" y="737" type="curve" smooth="yes"/>
      <point x="387" y="375" type="line"/>
      <point x="186" y="-74" type="line" smooth="yes"/>
      <point x="133" y="-193"/>
      <point x="121" y="-215"/>
      <point x="80" y="-215" type="curve" smooth="yes"/>
      <point x="66" y="-215"/>
      <point x="51" y="-203"/>
      <point x="51" y="-166" type="curve" smooth="yes"/>
      <point x="51" y="-84" type="line"/>
      <point x="-147" y="-84" type="line"/>
    </contour>
  </outline>
</glyph>
<glyph name="uniFFFC" format="2">
  <advance width="2034"/>
  <unicode hex="FFFC"/>
  <outline>
    <contour>
      <point x="76" y="1214" type="line"/>
      <point x="186" y="1214" type="line"/>
      <point x="186" y="1407" type="line"/>
      <point x="379" y="1407" type="line"/>
      <point x="379" y="1518" type="line"/>
      <point x="76" y="1518" type="line"/>
    </contour>
    <contour>
      <point x="1673" y="1407" type="line"/>
      <point x="1868" y="1407" type="line"/>
      <point x="1868" y="1214" type="line"/>
      <point x="1976" y="1214" type="line"/>
      <point x="1976" y="1518" type="line"/>
      <point x="1673" y="1518" type="line"/>
    </contour>
    <contour>
      <point x="76" y="-383" type="line"/>
      <point x="379" y="-383" type="line"/>
      <point x="379" y="-274" type="line"/>
      <point x="186" y="-274" type="line"/>
      <point x="186" y="-80" type="line"/>
      <point x="76" y="-80" type="line"/>
    </contour>
    <contour>
      <point x="1673" y="-383" type="line"/>
      <point x="1976" y="-383" type="line"/>
      <point x="1976" y="-80" type="line"/>
      <point x="1868" y="-80" type="line"/>
      <point x="1868" y="-274" type="line"/>
      <point x="1673" y="-274" type="line"/>
    </contour>
    <contour>
      <point x="1282" y="-383" type="line"/>
      <point x="1554" y="-383" type="line"/>
      <point x="1554" y="-274" type="line"/>
      <point x="1282" y="-274" type="line"/>
    </contour>
    <contour>
      <point x="500" y="-383" type="line"/>
      <point x="770" y="-383" type="line"/>
      <point x="770" y="-274" type="line"/>
      <point x="500" y="-274" type="line"/>
    </contour>
    <contour>
      <point x="500" y="1407" type="line"/>
      <point x="770" y="1407" type="line"/>
      <point x="770" y="1518" type="line"/>
      <point x="500" y="1518" type="line"/>
    </contour>
    <contour>
      <point x="1976" y="39" type="line"/>
      <point x="1976" y="309" type="line"/>
      <point x="1868" y="309" type="line"/>
      <point x="1868" y="39" type="line"/>
    </contour>
    <contour>
      <point x="1976" y="823" type="line"/>
      <point x="1976" y="1094" type="line"/>
      <point x="1868" y="1094" type="line"/>
      <point x="1868" y="823" type="line"/>
    </contour>
    <contour>
      <point x="891" y="-383" type="line"/>
      <point x="1163" y="-383" type="line"/>
      <point x="1163" y="-274" type="line"/>
      <point x="891" y="-274" type="line"/>
    </contour>
    <contour>
      <point x="186" y="39" type="line"/>
      <point x="186" y="309" type="line"/>
      <point x="76" y="309" type="line"/>
      <point x="76" y="39" type="line"/>
    </contour>
    <contour>
      <point x="891" y="1407" type="line"/>
      <point x="1163" y="1407" type="line"/>
      <point x="1163" y="1518" type="line"/>
      <point x="891" y="1518" type="line"/>
    </contour>
    <contour>
      <point x="1282" y="1407" type="line"/>
      <point x="1554" y="1407" type="line"/>
      <point x="1554" y="1518" type="line"/>
      <point x="1282" y="1518" type="line"/>
    </contour>
    <contour>
      <point x="186" y="430" type="line"/>
      <point x="186" y="702" type="line"/>
      <point x="76" y="702" type="line"/>
      <point x="76" y="430" type="line"/>
    </contour>
    <contour>
      <point x="186" y="823" type="line"/>
      <point x="186" y="1094" type="line"/>
      <point x="76" y="1094" type="line"/>
      <point x="76" y="823" type="line"/>
    </contour>
    <contour>
      <point x="1976" y="430" type="line"/>
      <point x="1976" y="702" type="line"/>
      <point x="1868" y="702" type="line"/>
      <point x="1868" y="430" type="line"/>
    </contour>
    <contour>
      <point x="856" y="629" type="curve" smooth="yes"/>
      <point x="856" y="825"/>
      <point x="762" y="930"/>
      <point x="594" y="930" type="curve" smooth="yes"/>
      <point x="426" y="930"/>
      <point x="332" y="823"/>
      <point x="332" y="629" type="curve" smooth="yes"/>
      <point x="332" y="436"/>
      <point x="426" y="328"/>
      <point x="594" y="328" type="curve" smooth="yes"/>
      <point x="764" y="328"/>
      <point x="856" y="436"/>
    </contour>
    <contour>
      <point x="459" y="629" type="curve" smooth="yes"/>
      <point x="459" y="760"/>
      <point x="504" y="825"/>
      <point x="594" y="825" type="curve" smooth="yes"/>
      <point x="684" y="825"/>
      <point x="729" y="760"/>
      <point x="729" y="629" type="curve" smooth="yes"/>
      <point x="729" y="498"/>
      <point x="684" y="432"/>
      <point x="594" y="432" type="curve" smooth="yes"/>
      <point x="504" y="432"/>
      <point x="459" y="498"/>
    </contour>
    <contour>
      <point x="940" y="922" type="line"/>
      <point x="940" y="336" type="line"/>
      <point x="1147" y="336" type="line" smooth="yes"/>
      <point x="1272" y="336"/>
      <point x="1350" y="397"/>
      <point x="1350" y="506" type="curve" smooth="yes"/>
      <point x="1350" y="578"/>
      <point x="1323" y="623"/>
      <point x="1243" y="641" type="curve"/>
      <point x="1243" y="649" type="line"/>
      <point x="1300" y="659"/>
      <point x="1333" y="707"/>
      <point x="1333" y="772" type="curve" smooth="yes"/>
      <point x="1333" y="883"/>
      <point x="1257" y="922"/>
      <point x="1112" y="922" type="curve" smooth="yes"/>
    </contour>
    <contour>
      <point x="1063" y="690" type="line"/>
      <point x="1063" y="819" type="line"/>
      <point x="1122" y="819" type="line" smooth="yes"/>
      <point x="1186" y="819"/>
      <point x="1210" y="801"/>
      <point x="1210" y="756" type="curve" smooth="yes"/>
      <point x="1210" y="713"/>
      <point x="1192" y="690"/>
      <point x="1128" y="690" type="curve" smooth="yes"/>
    </contour>
    <contour>
      <point x="1063" y="592" type="line"/>
      <point x="1133" y="592" type="line"/>
      <point x="1194" y="592"/>
      <point x="1223" y="567"/>
      <point x="1223" y="518" type="curve" smooth="yes"/>
      <point x="1223" y="469"/>
      <point x="1202" y="438"/>
      <point x="1137" y="438" type="curve" smooth="yes"/>
      <point x="1063" y="438" type="line"/>
    </contour>
    <contour>
      <point x="1483" y="330" type="curve" smooth="yes"/>
      <point x="1608" y="330"/>
      <point x="1681" y="397"/>
      <point x="1681" y="524" type="curve" smooth="yes"/>
      <point x="1681" y="922" type="line"/>
      <point x="1556" y="922" type="line"/>
      <point x="1556" y="520" type="line" smooth="yes"/>
      <point x="1556" y="463"/>
      <point x="1528" y="434"/>
      <point x="1470" y="434" type="curve" smooth="yes"/>
      <point x="1452" y="434"/>
      <point x="1430" y="436"/>
      <point x="1403" y="442" type="curve"/>
      <point x="1403" y="340" type="line"/>
      <point x="1421" y="334"/>
      <point x="1448" y="330"/>
    </contour>
  </outline>
</glyph>
<glyph name="Eng.alt1" format="2">
  <advance width="1219"/>
  <anchor x="610" y="-459" name="bottom"/>
  <anchor x="610" y="1462" name="top"/>
  <outline>
    <contour>
      <point x="678" y="-459" type="curve" smooth="yes"/>
      <point x="950" y="-459"/>
      <point x="1106" y="-330"/>
      <point x="1106" y="113" type="curve" smooth="yes"/>
      <point x="1106" y="1094" type="line" smooth="yes"/>
      <point x="1106" y="1368"/>
      <point x="969" y="1489"/>
      <point x="754" y="1483" type="curve" smooth="yes"/>
      <point x="641" y="1481"/>
      <point x="543" y="1423"/>
      <point x="469" y="1315" type="curve"/>
      <point x="461" y="1315" type="line"/>
      <point x="420" y="1462" type="line"/>
      <point x="121" y="1462" type="line"/>
      <point x="121" y="0" type="line"/>
      <point x="469" y="0" type="line"/>
      <point x="469" y="911" type="line" smooth="yes"/>
      <point x="469" y="1090"/>
      <point x="532" y="1180"/>
      <point x="625" y="1182" type="curve" smooth="yes"/>
      <point x="733" y="1184"/>
      <point x="758" y="1110"/>
      <point x="758" y="985" type="curve" smooth="yes"/>
      <point x="758" y="96" type="line" smooth="yes"/>
      <point x="758" y="-104"/>
      <point x="727" y="-164"/>
      <point x="621" y="-164" type="curve" smooth="yes"/>
      <point x="578" y="-164"/>
      <point x="541" y="-156"/>
      <point x="508" y="-143" type="curve"/>
      <point x="508" y="-438" type="line"/>
      <point x="561" y="-453"/>
      <point x="618" y="-459"/>
    </contour>
  </outline>
</glyph>
<glyph name="aogonek.loclNAV" format="2">
  <advance width="1012"/>
  <anchor x="506" y="-492" name="bottom"/>
  <anchor x="526" y="1133" name="top"/>
  <outline>
    <contour>
      <point x="559" y="-492" type="curve" smooth="yes"/>
      <point x="627" y="-492"/>
      <point x="680" y="-475"/>
      <point x="713" y="-461" type="curve"/>
      <point x="713" y="-250" type="line"/>
      <point x="692" y="-262"/>
      <point x="670" y="-272"/>
      <point x="633" y="-272" type="curve" smooth="yes"/>
      <point x="580" y="-272"/>
      <point x="549" y="-236"/>
      <point x="549" y="-145" type="curve" smooth="yes"/>
      <point x="549" y="-49"/>
      <point x="571" y="27"/>
      <point x="610" y="150" type="curve"/>
      <point x="440" y="184" type="line"/>
      <point x="358" y="74"/>
      <point x="299" y="-86"/>
      <point x="299" y="-236" type="curve" smooth="yes"/>
      <point x="299" y="-406"/>
      <point x="385" y="-492"/>
    </contour>
    <component base="a"/>
  </outline>
</glyph>
<glyph name="dotmacron.cap" format="2">
  <outline>
    <contour>
      <point x="301" y="2120" type="line"/>
      <point x="-299" y="2120" type="line"/>
      <point x="-299" y="1898" type="line"/>
      <point x="301" y="1898" type="line"/>
    </contour>
    <contour>
      <point x="-2" y="1839" type="curve"/>
      <point x="-96" y="1839"/>
      <point x="-154" y="1790"/>
      <point x="-154" y="1698" type="curve"/>
      <point x="-154" y="1612"/>
      <point x="-96" y="1561"/>
      <point x="-2" y="1561" type="curve"/>
      <point x="90" y="1561"/>
      <point x="152" y="1612"/>
      <point x="152" y="1698" type="curve"/>
      <point x="152" y="1790"/>
      <point x="90" y="1839"/>
    </contour>
  </outline>
</glyph>
<glyph name="eight.osf" format="2">
  <advance width="1014"/>
  <outline>
    <contour>
      <point x="498" y="1483" type="curve" smooth="yes"/>
      <point x="244" y="1483"/>
      <point x="88" y="1354"/>
      <point x="88" y="1128" type="curve" smooth="yes"/>
      <point x="88" y="985"/>
      <point x="143" y="868"/>
      <point x="272" y="764" type="curve"/>
      <point x="115" y="666"/>
      <point x="51" y="541"/>
      <point x="51" y="385" type="curve" smooth="yes"/>
      <point x="51" y="125"/>
      <point x="209" y="-20"/>
      <point x="494" y="-20" type="curve" smooth="yes"/>
      <point x="774" y="-20"/>
      <point x="940" y="129"/>
      <point x="940" y="389" type="curve" smooth="yes"/>
      <point x="940" y="530"/>
      <point x="879" y="647"/>
      <point x="705" y="770" type="curve"/>
      <point x="844" y="856"/>
      <point x="903" y="971"/>
      <point x="903" y="1126" type="curve" smooth="yes"/>
      <point x="903" y="1354"/>
      <point x="758" y="1483"/>
    </contour>
    <contour>
      <point x="375" y="391" type="curve" smooth="yes"/>
      <point x="375" y="467"/>
      <point x="406" y="530"/>
      <point x="492" y="596" type="curve"/>
      <point x="582" y="520"/>
      <point x="616" y="473"/>
      <point x="616" y="383" type="curve" smooth="yes"/>
      <point x="616" y="295"/>
      <point x="575" y="250"/>
      <point x="492" y="250" type="curve" smooth="yes"/>
      <point x="414" y="250"/>
      <point x="375" y="303"/>
    </contour>
    <contour>
      <point x="498" y="1212" type="curve" smooth="yes"/>
      <point x="545" y="1212"/>
      <point x="584" y="1169"/>
      <point x="584" y="1102" type="curve" smooth="yes"/>
      <point x="584" y="1040"/>
      <point x="565" y="999"/>
      <point x="494" y="940" type="curve"/>
      <point x="436" y="987"/>
      <point x="410" y="1040"/>
      <point x="410" y="1102" type="curve" smooth="yes"/>
      <point x="410" y="1167"/>
      <point x="444" y="1212"/>
    </contour>
  </outline>
</glyph>
<glyph name="four.osf" format="2">
  <advance width="1010"/>
  <outline>
    <contour>
      <point x="999" y="0" type="line"/>
      <point x="999" y="281" type="line"/>
      <point x="864" y="281" type="line"/>
      <point x="864" y="1151" type="line"/>
      <point x="541" y="1151" type="line"/>
      <point x="35" y="254" type="line"/>
      <point x="35" y="0" type="line"/>
      <point x="528" y="0" type="line"/>
      <point x="528" y="-322" type="line"/>
      <point x="864" y="-322" type="line"/>
      <point x="864" y="0" type="line"/>
    </contour>
    <contour>
      <point x="532" y="281" type="line"/>
      <point x="311" y="281" type="line"/>
      <point x="467" y="575" type="line" smooth="yes"/>
      <point x="489" y="616"/>
      <point x="512" y="668"/>
      <point x="530" y="721" type="curve"/>
      <point x="537" y="721" type="line"/>
      <point x="532" y="649"/>
      <point x="532" y="575"/>
      <point x="532" y="506" type="curve" smooth="yes"/>
    </contour>
  </outline>
</glyph>
<glyph name="g.sc" format="2">
  <advance width="1010"/>
  <anchor x="557" y="0" name="bottom"/>
  <anchor x="547" y="1206" name="top"/>
  <anchor x="969" y="1206" name="topright"/>
  <outline>
    <contour>
      <point x="946" y="55" type="curve"/>
      <point x="946" y="723" type="line"/>
      <point x="494" y="723" type="line"/>
      <point x="494" y="446" type="line"/>
      <point x="623" y="446" type="line"/>
      <point x="623" y="268" type="line"/>
      <point x="614" y="266"/>
      <point x="571" y="260"/>
      <point x="561" y="260" type="curve" smooth="yes"/>
      <point x="455" y="260"/>
      <point x="399" y="395"/>
      <point x="399" y="596" type="curve" smooth="yes"/>
      <point x="399" y="793"/>
      <point x="451" y="926"/>
      <point x="592" y="926" type="curve" smooth="yes"/>
      <point x="680" y="926"/>
      <point x="750" y="905"/>
      <point x="813" y="864" type="curve"/>
      <point x="922" y="1147" type="line"/>
      <point x="840" y="1188"/>
      <point x="719" y="1221"/>
      <point x="590" y="1221" type="curve" smooth="yes"/>
      <point x="248" y="1221"/>
      <point x="63" y="989"/>
      <point x="63" y="606" type="curve" smooth="yes"/>
      <point x="63" y="180"/>
      <point x="268" y="-16"/>
      <point x="541" y="-16" type="curve" smooth="yes"/>
      <point x="692" y="-16"/>
      <point x="840" y="16"/>
    </contour>
  </outline>
</glyph>
<glyph name="gravecomb.sc" format="2">
  <advance width="971"/>
  <anchor x="520" y="1206" name="_top"/>
  <anchor x="401" y="1651" name="top"/>
  <outline>
    <contour>
      <point x="432" y="1323" type="curve"/>
      <point x="709" y="1323" type="line"/>
      <point x="709" y="1356" type="line"/>
      <point x="657" y="1430"/>
      <point x="580" y="1556"/>
      <point x="537" y="1651" type="curve"/>
      <point x="84" y="1651" type="line"/>
      <point x="84" y="1630" type="line"/>
      <point x="154" y="1554"/>
      <point x="340" y="1393"/>
    </contour>
  </outline>
</glyph>
<glyph name="j.sc" format="2">
  <advance width="539"/>
  <anchor x="281" y="-389" name="bottom"/>
  <anchor x="270" y="1206" name="top"/>
  <anchor x="498" y="1206" name="topright"/>
  <outline>
    <contour>
      <point x="51" y="-389" type="curve" smooth="yes"/>
      <point x="281" y="-389"/>
      <point x="444" y="-279"/>
      <point x="444" y="111" type="curve" smooth="yes"/>
      <point x="444" y="1206" type="line"/>
      <point x="109" y="1206" type="line"/>
      <point x="109" y="104" type="line" smooth="yes"/>
      <point x="109" y="-37"/>
      <point x="86" y="-113"/>
      <point x="-6" y="-113" type="curve" smooth="yes"/>
      <point x="-45" y="-113"/>
      <point x="-76" y="-102"/>
      <point x="-102" y="-94" type="curve"/>
      <point x="-102" y="-375" type="line"/>
      <point x="-66" y="-381"/>
      <point x="-16" y="-389"/>
    </contour>
  </outline>
</glyph>
<glyph name="macroncomb.sc" format="2">
  <advance width="977"/>
  <anchor x="489" y="1206" name="_top"/>
  <anchor x="494" y="1597" name="top"/>
  <outline>
    <contour>
      <point x="168" y="1597" type="line"/>
      <point x="168" y="1333" type="line"/>
      <point x="811" y="1333" type="line"/>
      <point x="811" y="1597" type="line"/>
    </contour>
  </outline>
</glyph>
<glyph name="ringcomb.sc" format="2">
  <advance width="854"/>
  <anchor x="440" y="1206" name="_top"/>
  <anchor x="444" y="1774" name="top"/>
  <outline>
    <contour>
      <point x="692" y="1524" type="curve" smooth="yes"/>
      <point x="692" y="1679"/>
      <point x="580" y="1774"/>
      <point x="440" y="1774" type="curve" smooth="yes"/>
      <point x="291" y="1774"/>
      <point x="188" y="1679"/>
      <point x="188" y="1522" type="curve" smooth="yes"/>
      <point x="188" y="1366"/>
      <point x="291" y="1270"/>
      <point x="440" y="1270" type="curve" smooth="yes"/>
      <point x="582" y="1270"/>
      <point x="692" y="1366"/>
    </contour>
    <contour>
      <point x="512" y="1524" type="curve" smooth="yes"/>
      <point x="512" y="1483"/>
      <point x="485" y="1450"/>
      <point x="440" y="1450" type="curve" smooth="yes"/>
      <point x="393" y="1450"/>
      <point x="369" y="1483"/>
      <point x="369" y="1524" type="curve" smooth="yes"/>
      <point x="369" y="1565"/>
      <point x="399" y="1593"/>
      <point x="440" y="1593" type="curve" smooth="yes"/>
      <point x="481" y="1593"/>
      <point x="512" y="1565"/>
    </contour>
  </outline>
</glyph>
<glyph name="uni030103060308" format="2">
  <anchor x="367" y="1133" name="_top"/>
  <anchor x="371" y="2009" name="top"/>
  <outline>
    <contour>
      <point x="362" y="1526" type="curve"/>
      <point x="573" y="1526"/>
      <point x="684" y="1618"/>
      <point x="690" y="1841" type="curve"/>
      <point x="543" y="1841" type="line"/>
      <point x="535" y="1731"/>
      <point x="463" y="1700"/>
      <point x="365" y="1700" type="curve"/>
      <point x="270" y="1700"/>
      <point x="190" y="1722"/>
      <point x="188" y="1841" type="curve"/>
      <point x="41" y="1841" type="line"/>
      <point x="41" y="1610"/>
      <point x="143" y="1526"/>
    </contour>
    <contour>
      <point x="195" y="1214" type="curve"/>
      <point x="272" y="1214"/>
      <point x="328" y="1262"/>
      <point x="328" y="1346" type="curve"/>
      <point x="328" y="1436"/>
      <point x="272" y="1483"/>
      <point x="195" y="1483" type="curve"/>
      <point x="115" y="1483"/>
      <point x="66" y="1436"/>
      <point x="66" y="1346" type="curve"/>
      <point x="66" y="1262"/>
      <point x="115" y="1214"/>
    </contour>
    <contour>
      <point x="535" y="1214" type="curve"/>
      <point x="612" y="1214"/>
      <point x="666" y="1262"/>
      <point x="666" y="1346" type="curve"/>
      <point x="666" y="1436"/>
      <point x="612" y="1483"/>
      <point x="535" y="1483" type="curve"/>
      <point x="451" y="1483"/>
      <point x="403" y="1436"/>
      <point x="403" y="1346" type="curve"/>
      <point x="403" y="1262"/>
      <point x="451" y="1214"/>
    </contour>
    <contour>
      <point x="264" y="1782" type="line"/>
      <point x="393" y="1782" type="line"/>
      <point x="446" y="1835"/>
      <point x="524" y="1933"/>
      <point x="561" y="1989" type="curve"/>
      <point x="561" y="2009" type="line"/>
      <point x="350" y="2009" type="line"/>
      <point x="328" y="1950"/>
      <point x="283" y="1858"/>
      <point x="264" y="1808" type="curve"/>
    </contour>
  </outline>
</glyph>
<glyph name="uni1DA4dotless" format="2">
  <advance width="352"/>
  <anchor x="180" y="588" name="bottom"/>
  <anchor x="176" y="1268" name="top"/>
  <anchor x="326" y="1268" name="topright"/>
  <outline>
    <contour>
      <point x="352" y="1022" type="line"/>
      <point x="0" y="1022" type="line"/>
      <point x="0" y="879" type="line"/>
      <point x="352" y="879" type="line"/>
    </contour>
    <contour>
      <point x="283" y="1268" type="line"/>
      <point x="68" y="1268" type="line"/>
      <point x="68" y="588" type="line"/>
      <point x="283" y="588" type="line"/>
    </contour>
  </outline>
</glyph>
